%TF.GenerationSoftware,KiCad,Pcbnew,7.0.6*%
%TF.CreationDate,2024-03-10T00:39:51+00:00*%
%TF.ProjectId,RobotArmMK1.2,526f626f-7441-4726-9d4d-4b312e322e6b,rev?*%
%TF.SameCoordinates,Original*%
%TF.FileFunction,Copper,L1,Top*%
%TF.FilePolarity,Positive*%
%FSLAX46Y46*%
G04 Gerber Fmt 4.6, Leading zero omitted, Abs format (unit mm)*
G04 Created by KiCad (PCBNEW 7.0.6) date 2024-03-10 00:39:51*
%MOMM*%
%LPD*%
G01*
G04 APERTURE LIST*
G04 Aperture macros list*
%AMRoundRect*
0 Rectangle with rounded corners*
0 $1 Rounding radius*
0 $2 $3 $4 $5 $6 $7 $8 $9 X,Y pos of 4 corners*
0 Add a 4 corners polygon primitive as box body*
4,1,4,$2,$3,$4,$5,$6,$7,$8,$9,$2,$3,0*
0 Add four circle primitives for the rounded corners*
1,1,$1+$1,$2,$3*
1,1,$1+$1,$4,$5*
1,1,$1+$1,$6,$7*
1,1,$1+$1,$8,$9*
0 Add four rect primitives between the rounded corners*
20,1,$1+$1,$2,$3,$4,$5,0*
20,1,$1+$1,$4,$5,$6,$7,0*
20,1,$1+$1,$6,$7,$8,$9,0*
20,1,$1+$1,$8,$9,$2,$3,0*%
G04 Aperture macros list end*
%TA.AperFunction,SMDPad,CuDef*%
%ADD10RoundRect,0.100000X0.100000X-0.217500X0.100000X0.217500X-0.100000X0.217500X-0.100000X-0.217500X0*%
%TD*%
%TA.AperFunction,SMDPad,CuDef*%
%ADD11RoundRect,0.100000X-0.100000X0.217500X-0.100000X-0.217500X0.100000X-0.217500X0.100000X0.217500X0*%
%TD*%
%TA.AperFunction,SMDPad,CuDef*%
%ADD12RoundRect,0.100000X0.217500X0.100000X-0.217500X0.100000X-0.217500X-0.100000X0.217500X-0.100000X0*%
%TD*%
%TA.AperFunction,SMDPad,CuDef*%
%ADD13RoundRect,0.250000X0.350000X-0.850000X0.350000X0.850000X-0.350000X0.850000X-0.350000X-0.850000X0*%
%TD*%
%TA.AperFunction,SMDPad,CuDef*%
%ADD14RoundRect,0.250000X1.125000X-1.275000X1.125000X1.275000X-1.125000X1.275000X-1.125000X-1.275000X0*%
%TD*%
%TA.AperFunction,SMDPad,CuDef*%
%ADD15RoundRect,0.249997X2.650003X-2.950003X2.650003X2.950003X-2.650003X2.950003X-2.650003X-2.950003X0*%
%TD*%
%TA.AperFunction,ComponentPad*%
%ADD16C,2.100000*%
%TD*%
%TA.AperFunction,ComponentPad*%
%ADD17R,2.100000X2.100000*%
%TD*%
%TA.AperFunction,SMDPad,CuDef*%
%ADD18RoundRect,0.250000X0.350000X0.450000X-0.350000X0.450000X-0.350000X-0.450000X0.350000X-0.450000X0*%
%TD*%
%TA.AperFunction,SMDPad,CuDef*%
%ADD19R,1.738275X2.413000*%
%TD*%
%TA.AperFunction,SMDPad,CuDef*%
%ADD20RoundRect,0.237500X0.237500X-0.287500X0.237500X0.287500X-0.237500X0.287500X-0.237500X-0.287500X0*%
%TD*%
%TA.AperFunction,SMDPad,CuDef*%
%ADD21RoundRect,0.250000X0.412500X0.650000X-0.412500X0.650000X-0.412500X-0.650000X0.412500X-0.650000X0*%
%TD*%
%TA.AperFunction,SMDPad,CuDef*%
%ADD22R,1.550000X1.300000*%
%TD*%
%TA.AperFunction,SMDPad,CuDef*%
%ADD23RoundRect,0.200000X-0.250000X0.200000X-0.250000X-0.200000X0.250000X-0.200000X0.250000X0.200000X0*%
%TD*%
%TA.AperFunction,SMDPad,CuDef*%
%ADD24R,1.600000X0.550000*%
%TD*%
%TA.AperFunction,SMDPad,CuDef*%
%ADD25R,0.550000X1.600000*%
%TD*%
%TA.AperFunction,SMDPad,CuDef*%
%ADD26RoundRect,0.250000X0.450000X-0.350000X0.450000X0.350000X-0.450000X0.350000X-0.450000X-0.350000X0*%
%TD*%
%TA.AperFunction,SMDPad,CuDef*%
%ADD27RoundRect,0.250000X-0.350000X-0.450000X0.350000X-0.450000X0.350000X0.450000X-0.350000X0.450000X0*%
%TD*%
%TA.AperFunction,ViaPad*%
%ADD28C,0.800000*%
%TD*%
%TA.AperFunction,Conductor*%
%ADD29C,0.500000*%
%TD*%
%TA.AperFunction,Conductor*%
%ADD30C,0.300000*%
%TD*%
%TA.AperFunction,Conductor*%
%ADD31C,0.250000*%
%TD*%
G04 APERTURE END LIST*
D10*
%TO.P,C3,2*%
%TO.N,GND*%
X145525000Y-96390000D03*
%TO.P,C3,1*%
%TO.N,PB6_CRYS1*%
X145525000Y-97230000D03*
%TD*%
D11*
%TO.P,C4,2*%
%TO.N,GND*%
X145525000Y-99470000D03*
%TO.P,C4,1*%
%TO.N,PB7_CRYS2*%
X145525000Y-98630000D03*
%TD*%
D12*
%TO.P,C5,1*%
%TO.N,Net-(J2-Pin_6)*%
X151920000Y-89700000D03*
%TO.P,C5,2*%
%TO.N,PC6_RESET*%
X151080000Y-89700000D03*
%TD*%
D13*
%TO.P,U2,3,VI*%
%TO.N,VBUS*%
X164780000Y-108050000D03*
D14*
%TO.P,U2,2,VO*%
%TO.N,+5V*%
X164025000Y-100075000D03*
X160975000Y-100075000D03*
D15*
X162500000Y-101750000D03*
D14*
X164025000Y-103425000D03*
X160975000Y-103425000D03*
D13*
%TO.P,U2,1,ADJ*%
%TO.N,GND*%
X160220000Y-108050000D03*
%TD*%
D16*
%TO.P,J6,4,Pin_4*%
%TO.N,unconnected-(J6-Pin_4-Pad4)*%
X159750000Y-115000000D03*
%TO.P,J6,3,Pin_3*%
%TO.N,GND*%
X162290000Y-115000000D03*
%TO.P,J6,2,Pin_2*%
%TO.N,PB5_NEO*%
X164830000Y-115000000D03*
D17*
%TO.P,J6,1,Pin_1*%
%TO.N,+5V*%
X167370000Y-115000000D03*
%TD*%
D16*
%TO.P,J4,2,Pin_2*%
%TO.N,PB1_S4*%
X142132500Y-115000000D03*
D17*
%TO.P,J4,1,Pin_1*%
%TO.N,PD6_S3*%
X139592500Y-115000000D03*
%TD*%
D18*
%TO.P,R2,2*%
%TO.N,PD4_HC05RX*%
X142100000Y-106000000D03*
%TO.P,R2,1*%
%TO.N,Net-(J1-Pin_2)*%
X144100000Y-106000000D03*
%TD*%
D19*
%TO.P,C1,2*%
%TO.N,GND*%
X155339063Y-107100000D03*
%TO.P,C1,1*%
%TO.N,VBUS*%
X152860937Y-107100000D03*
%TD*%
D20*
%TO.P,D1,1,K*%
%TO.N,Net-(D1-K)*%
X137740000Y-88115000D03*
%TO.P,D1,2,A*%
%TO.N,+5V*%
X137740000Y-86365000D03*
%TD*%
D17*
%TO.P,J7,1,Pin_1*%
%TO.N,VBUS*%
X153000000Y-115000000D03*
D16*
%TO.P,J7,2,Pin_2*%
%TO.N,GND*%
X155540000Y-115000000D03*
%TD*%
D17*
%TO.P,J5,1,Pin_1*%
%TO.N,PB2_S5*%
X146250000Y-115000000D03*
D16*
%TO.P,J5,2,Pin_2*%
%TO.N,PB3_S6*%
X148790000Y-115000000D03*
%TD*%
D17*
%TO.P,J1,1,Pin_1*%
%TO.N,unconnected-(J1-Pin_1-Pad1)*%
X130000000Y-106910000D03*
D16*
%TO.P,J1,2,Pin_2*%
%TO.N,Net-(J1-Pin_2)*%
X130000000Y-104370000D03*
%TO.P,J1,3,Pin_3*%
%TO.N,PD2_HC05TX*%
X130000000Y-101830000D03*
%TO.P,J1,4,Pin_4*%
%TO.N,GND*%
X130000000Y-99290000D03*
%TO.P,J1,5,Pin_5*%
%TO.N,unconnected-(J1-Pin_5-Pad5)*%
X130000000Y-96750000D03*
%TO.P,J1,6,Pin_6*%
%TO.N,+5V*%
X130000000Y-94210000D03*
%TD*%
D21*
%TO.P,C2,2*%
%TO.N,GND*%
X141737500Y-93550000D03*
%TO.P,C2,1*%
%TO.N,+5V*%
X144862500Y-93550000D03*
%TD*%
D22*
%TO.P,Reset1,1,1*%
%TO.N,PC6_RESET*%
X158775000Y-85750000D03*
X166725000Y-85750000D03*
%TO.P,Reset1,2,2*%
%TO.N,GND*%
X158775000Y-90250000D03*
X166725000Y-90250000D03*
%TD*%
D17*
%TO.P,J2,1,Pin_1*%
%TO.N,GND*%
X171000000Y-106950000D03*
D16*
%TO.P,J2,2,Pin_2*%
%TO.N,unconnected-(J2-Pin_2-Pad2)*%
X171000000Y-104410000D03*
%TO.P,J2,3,Pin_3*%
%TO.N,+5V*%
X171000000Y-101870000D03*
%TO.P,J2,4,Pin_4*%
%TO.N,PD0_FTDITX*%
X171000000Y-99330000D03*
%TO.P,J2,5,Pin_5*%
%TO.N,PD1_FTDIRX*%
X171000000Y-96790000D03*
%TO.P,J2,6,Pin_6*%
%TO.N,Net-(J2-Pin_6)*%
X171000000Y-94250000D03*
%TD*%
D23*
%TO.P,Y1,1,1*%
%TO.N,PB6_CRYS1*%
X144150000Y-97175000D03*
%TO.P,Y1,2,2*%
%TO.N,GND*%
X142300000Y-97175000D03*
%TO.P,Y1,3,3*%
X142300000Y-98625000D03*
%TO.P,Y1,4,4*%
%TO.N,PB7_CRYS2*%
X144150000Y-98625000D03*
%TD*%
D24*
%TO.P,U1,1,PD3*%
%TO.N,PD3_S1*%
X147250000Y-92700000D03*
%TO.P,U1,2,PD4*%
%TO.N,PD4_HC05RX*%
X147250000Y-93500000D03*
%TO.P,U1,3,PE0*%
%TO.N,unconnected-(U1-PE0-Pad3)*%
X147250000Y-94300000D03*
%TO.P,U1,4,VCC*%
%TO.N,+5V*%
X147250000Y-95100000D03*
%TO.P,U1,5,GND*%
%TO.N,GND*%
X147250000Y-95900000D03*
%TO.P,U1,6,PE1*%
%TO.N,unconnected-(U1-PE1-Pad6)*%
X147250000Y-96700000D03*
%TO.P,U1,7,XTAL1/PB6*%
%TO.N,PB6_CRYS1*%
X147250000Y-97500000D03*
%TO.P,U1,8,XTAL2/PB7*%
%TO.N,PB7_CRYS2*%
X147250000Y-98300000D03*
D25*
%TO.P,U1,9,PD5*%
%TO.N,PD5_S2*%
X148700000Y-99750000D03*
%TO.P,U1,10,PD6*%
%TO.N,PD6_S3*%
X149500000Y-99750000D03*
%TO.P,U1,11,PD7*%
%TO.N,unconnected-(U1-PD7-Pad11)*%
X150300000Y-99750000D03*
%TO.P,U1,12,PB0*%
%TO.N,unconnected-(U1-PB0-Pad12)*%
X151100000Y-99750000D03*
%TO.P,U1,13,PB1*%
%TO.N,PB1_S4*%
X151900000Y-99750000D03*
%TO.P,U1,14,PB2*%
%TO.N,PB2_S5*%
X152700000Y-99750000D03*
%TO.P,U1,15,PB3*%
%TO.N,PB3_S6*%
X153500000Y-99750000D03*
%TO.P,U1,16,PB4*%
%TO.N,unconnected-(U1-PB4-Pad16)*%
X154300000Y-99750000D03*
D24*
%TO.P,U1,17,PB5*%
%TO.N,PB5_NEO*%
X155750000Y-98300000D03*
%TO.P,U1,18,AVCC*%
%TO.N,+5V*%
X155750000Y-97500000D03*
%TO.P,U1,19,PE2*%
%TO.N,unconnected-(U1-PE2-Pad19)*%
X155750000Y-96700000D03*
%TO.P,U1,20,AREF*%
%TO.N,+5V*%
X155750000Y-95900000D03*
%TO.P,U1,21,GND*%
%TO.N,GND*%
X155750000Y-95100000D03*
%TO.P,U1,22,PE3*%
%TO.N,unconnected-(U1-PE3-Pad22)*%
X155750000Y-94300000D03*
%TO.P,U1,23,PC0*%
%TO.N,unconnected-(U1-PC0-Pad23)*%
X155750000Y-93500000D03*
%TO.P,U1,24,PC1*%
%TO.N,unconnected-(U1-PC1-Pad24)*%
X155750000Y-92700000D03*
D25*
%TO.P,U1,25,PC2*%
%TO.N,unconnected-(U1-PC2-Pad25)*%
X154300000Y-91250000D03*
%TO.P,U1,26,PC3*%
%TO.N,unconnected-(U1-PC3-Pad26)*%
X153500000Y-91250000D03*
%TO.P,U1,27,PC4*%
%TO.N,unconnected-(U1-PC4-Pad27)*%
X152700000Y-91250000D03*
%TO.P,U1,28,PC5*%
%TO.N,unconnected-(U1-PC5-Pad28)*%
X151900000Y-91250000D03*
%TO.P,U1,29,~{RESET}/PC6*%
%TO.N,PC6_RESET*%
X151100000Y-91250000D03*
%TO.P,U1,30,PD0*%
%TO.N,PD0_FTDITX*%
X150300000Y-91250000D03*
%TO.P,U1,31,PD1*%
%TO.N,PD1_FTDIRX*%
X149500000Y-91250000D03*
%TO.P,U1,32,PD2*%
%TO.N,PD2_HC05TX*%
X148700000Y-91250000D03*
%TD*%
D17*
%TO.P,J3,1,Pin_1*%
%TO.N,PD3_S1*%
X132960000Y-115000000D03*
D16*
%TO.P,J3,2,Pin_2*%
%TO.N,PD5_S2*%
X135500000Y-115000000D03*
%TD*%
D26*
%TO.P,R4,1*%
%TO.N,GND*%
X137740000Y-93240000D03*
%TO.P,R4,2*%
%TO.N,Net-(D1-K)*%
X137740000Y-91240000D03*
%TD*%
D27*
%TO.P,R3,2*%
%TO.N,PC6_RESET*%
X147430000Y-87370000D03*
%TO.P,R3,1*%
%TO.N,+5V*%
X145430000Y-87370000D03*
%TD*%
D18*
%TO.P,R1,1*%
%TO.N,Net-(J1-Pin_2)*%
X138600000Y-106000000D03*
%TO.P,R1,2*%
%TO.N,GND*%
X136600000Y-106000000D03*
%TD*%
D28*
%TO.N,VBUS*%
X157490500Y-109827360D03*
%TO.N,GND*%
X150210000Y-96960000D03*
X145280000Y-100680000D03*
X142270000Y-100110000D03*
X142080000Y-95640000D03*
X136050000Y-95350000D03*
X132050000Y-99310000D03*
X134920000Y-105910000D03*
X154040000Y-95690000D03*
X156980000Y-107110000D03*
X161530000Y-108060000D03*
X161330000Y-113450000D03*
X155600000Y-112700000D03*
X168750000Y-106980000D03*
X160570000Y-90360000D03*
X164710000Y-90260000D03*
%TO.N,+5V*%
X148680000Y-92649502D03*
X148680000Y-89850498D03*
%TO.N,Net-(J1-Pin_2)*%
X139160500Y-107969137D03*
X140659500Y-107900000D03*
%TO.N,VBUS*%
X159010000Y-109780000D03*
%TO.N,PD0_FTDITX*%
X154290000Y-92970000D03*
X157149502Y-92970000D03*
%TO.N,PD1_FTDIRX*%
X154334709Y-93968502D03*
X157874002Y-93970000D03*
%TD*%
D29*
%TO.N,Net-(J1-Pin_2)*%
X139160500Y-107969137D02*
X139160500Y-106560500D01*
X139160500Y-106560500D02*
X138600000Y-106000000D01*
X142200000Y-107900000D02*
X144100000Y-106000000D01*
X140659500Y-107900000D02*
X142200000Y-107900000D01*
D30*
%TO.N,PD3_S1*%
X132960000Y-111150000D02*
X132960000Y-115000000D01*
X134700000Y-109410000D02*
X132960000Y-111150000D01*
X139910000Y-91460000D02*
X139910000Y-108700000D01*
X139910000Y-108700000D02*
X139200000Y-109410000D01*
X140330000Y-91040000D02*
X139910000Y-91460000D01*
X139200000Y-109410000D02*
X134700000Y-109410000D01*
X146520000Y-91040000D02*
X140330000Y-91040000D01*
X147250000Y-91770000D02*
X146520000Y-91040000D01*
X147250000Y-92700000D02*
X147250000Y-91770000D01*
%TO.N,PD1_FTDIRX*%
X168180000Y-93970000D02*
X171000000Y-96790000D01*
X157874002Y-93970000D02*
X168180000Y-93970000D01*
D31*
%TO.N,PD0_FTDITX*%
X161830000Y-97570000D02*
X169240000Y-97570000D01*
X159170000Y-94910000D02*
X161830000Y-97570000D01*
X157520000Y-94910000D02*
X159170000Y-94910000D01*
X157149502Y-92970000D02*
X157149502Y-94539502D01*
X157149502Y-94539502D02*
X157520000Y-94910000D01*
X169240000Y-97570000D02*
X171000000Y-99330000D01*
D29*
%TO.N,+5V*%
X160975000Y-98395000D02*
X158480000Y-95900000D01*
%TO.N,GND*%
X154630000Y-95100000D02*
X155750000Y-95100000D01*
X154040000Y-95690000D02*
X154630000Y-95100000D01*
D30*
%TO.N,PD1_FTDIRX*%
X149500000Y-92350000D02*
X149500000Y-91250000D01*
X154334709Y-93968502D02*
X151118502Y-93968502D01*
X151118502Y-93968502D02*
X149500000Y-92350000D01*
D31*
%TO.N,Net-(J2-Pin_6)*%
X168400000Y-91650000D02*
X171000000Y-94250000D01*
X157510000Y-91650000D02*
X168400000Y-91650000D01*
X155560000Y-89700000D02*
X157510000Y-91650000D01*
X151907500Y-89700000D02*
X155560000Y-89700000D01*
%TO.N,PD0_FTDITX*%
X150300000Y-92300000D02*
X150300000Y-91250000D01*
X154290000Y-92970000D02*
X150970000Y-92970000D01*
X150970000Y-92970000D02*
X150300000Y-92300000D01*
D29*
%TO.N,+5V*%
X148425000Y-95100000D02*
X147250000Y-95100000D01*
X148680000Y-94845000D02*
X148425000Y-95100000D01*
X148680000Y-92649502D02*
X148680000Y-94845000D01*
X147910498Y-89850498D02*
X145430000Y-87370000D01*
X148680000Y-89850498D02*
X147910498Y-89850498D01*
%TO.N,VBUS*%
X153085246Y-109690000D02*
X152046600Y-108651354D01*
X157353140Y-109690000D02*
X153085246Y-109690000D01*
X157490500Y-109827360D02*
X157353140Y-109690000D01*
X152046600Y-108651354D02*
X152046600Y-107914337D01*
X163050000Y-109780000D02*
X164780000Y-108050000D01*
X159010000Y-109780000D02*
X163050000Y-109780000D01*
X151520000Y-108440937D02*
X152046600Y-107914337D01*
X151520000Y-113520000D02*
X151520000Y-108440937D01*
X153000000Y-115000000D02*
X151520000Y-113520000D01*
%TO.N,GND*%
X149150000Y-95900000D02*
X147250000Y-95900000D01*
X150210000Y-96960000D02*
X149150000Y-95900000D01*
%TO.N,+5V*%
X149990000Y-95100000D02*
X147250000Y-95100000D01*
X155750000Y-97500000D02*
X152390000Y-97500000D01*
X152390000Y-97500000D02*
X149990000Y-95100000D01*
%TO.N,GND*%
X146017500Y-95900000D02*
X145525000Y-96392500D01*
X147250000Y-95900000D02*
X146017500Y-95900000D01*
X145525000Y-100435000D02*
X145280000Y-100680000D01*
X145525000Y-99457500D02*
X145525000Y-100435000D01*
X142300000Y-100080000D02*
X142270000Y-100110000D01*
X142300000Y-98625000D02*
X142300000Y-100080000D01*
X142300000Y-97175000D02*
X142300000Y-98625000D01*
X141737500Y-95297500D02*
X142080000Y-95640000D01*
X141737500Y-93550000D02*
X141737500Y-95297500D01*
X137740000Y-93660000D02*
X136050000Y-95350000D01*
X137740000Y-93240000D02*
X137740000Y-93660000D01*
X132030000Y-99290000D02*
X132050000Y-99310000D01*
X130000000Y-99290000D02*
X132030000Y-99290000D01*
X135010000Y-106000000D02*
X134920000Y-105910000D01*
X136600000Y-106000000D02*
X135010000Y-106000000D01*
D30*
%TO.N,PB3_S6*%
X149540000Y-106420000D02*
X153500000Y-102460000D01*
X153500000Y-102460000D02*
X153500000Y-99750000D01*
X149540000Y-114250000D02*
X149540000Y-106420000D01*
X148790000Y-115000000D02*
X149540000Y-114250000D01*
%TO.N,PB1_S4*%
X151900000Y-100770000D02*
X151900000Y-99750000D01*
X147470000Y-109180000D02*
X147470000Y-105200000D01*
X147470000Y-105200000D02*
X151900000Y-100770000D01*
X142132500Y-114517500D02*
X147470000Y-109180000D01*
X142132500Y-115000000D02*
X142132500Y-114517500D01*
%TO.N,PD5_S2*%
X142060000Y-110590000D02*
X145520000Y-107130000D01*
X135500000Y-112670000D02*
X137580000Y-110590000D01*
X145520000Y-104100000D02*
X148700000Y-100920000D01*
X148700000Y-100920000D02*
X148700000Y-99750000D01*
X135500000Y-115000000D02*
X135500000Y-112670000D01*
X137580000Y-110590000D02*
X142060000Y-110590000D01*
X145520000Y-107130000D02*
X145520000Y-104100000D01*
%TO.N,PD6_S3*%
X146490000Y-104640000D02*
X146490000Y-108102500D01*
X149500000Y-101630000D02*
X146490000Y-104640000D01*
X146490000Y-108102500D02*
X139592500Y-115000000D01*
X149500000Y-99750000D02*
X149500000Y-101630000D01*
%TO.N,PB2_S5*%
X152700000Y-101600000D02*
X152700000Y-99750000D01*
X148500000Y-105800000D02*
X152700000Y-101600000D01*
X146250000Y-112420000D02*
X148500000Y-110170000D01*
X146250000Y-115000000D02*
X146250000Y-112420000D01*
X148500000Y-110170000D02*
X148500000Y-105800000D01*
%TO.N,PB5_NEO*%
X158240000Y-105280000D02*
X155750000Y-102790000D01*
X158240000Y-110150000D02*
X158240000Y-105280000D01*
X160680000Y-112590000D02*
X158240000Y-110150000D01*
X164830000Y-113930000D02*
X163490000Y-112590000D01*
X163490000Y-112590000D02*
X160680000Y-112590000D01*
X164830000Y-115000000D02*
X164830000Y-113930000D01*
X155750000Y-102790000D02*
X155750000Y-98300000D01*
D29*
%TO.N,GND*%
X156970000Y-107100000D02*
X156980000Y-107110000D01*
X155339063Y-107100000D02*
X156970000Y-107100000D01*
X161520000Y-108050000D02*
X161530000Y-108060000D01*
X160220000Y-108050000D02*
X161520000Y-108050000D01*
X162290000Y-114410000D02*
X161330000Y-113450000D01*
X162290000Y-115000000D02*
X162290000Y-114410000D01*
X155540000Y-112760000D02*
X155600000Y-112700000D01*
X155540000Y-115000000D02*
X155540000Y-112760000D01*
X168780000Y-106950000D02*
X168750000Y-106980000D01*
X171000000Y-106950000D02*
X168780000Y-106950000D01*
X160460000Y-90250000D02*
X160570000Y-90360000D01*
X158775000Y-90250000D02*
X160460000Y-90250000D01*
X164720000Y-90250000D02*
X164710000Y-90260000D01*
X166725000Y-90250000D02*
X164720000Y-90250000D01*
%TO.N,+5V*%
X144862500Y-94012500D02*
X144862500Y-93550000D01*
X145950000Y-95100000D02*
X144862500Y-94012500D01*
X147250000Y-95100000D02*
X145950000Y-95100000D01*
X158480000Y-95900000D02*
X155750000Y-95900000D01*
X160975000Y-100075000D02*
X160975000Y-98395000D01*
X158400000Y-97500000D02*
X155750000Y-97500000D01*
X160975000Y-100075000D02*
X158400000Y-97500000D01*
%TO.N,VBUS*%
X152046600Y-107914337D02*
X152860937Y-107100000D01*
D31*
%TO.N,PC6_RESET*%
X166150000Y-85750000D02*
X166725000Y-85750000D01*
X164660000Y-84260000D02*
X166150000Y-85750000D01*
X153460000Y-84260000D02*
X164660000Y-84260000D01*
X151092500Y-86627500D02*
X153460000Y-84260000D01*
X151092500Y-89700000D02*
X151092500Y-86627500D01*
X154938959Y-85750000D02*
X158775000Y-85750000D01*
X151092500Y-89596459D02*
X154938959Y-85750000D01*
X151092500Y-89700000D02*
X151092500Y-89596459D01*
D29*
%TO.N,+5V*%
X130000000Y-92420000D02*
X130000000Y-94210000D01*
X136030000Y-86390000D02*
X130000000Y-92420000D01*
X137715000Y-86390000D02*
X136030000Y-86390000D01*
X137740000Y-86365000D02*
X137715000Y-86390000D01*
X137765000Y-86390000D02*
X137740000Y-86365000D01*
X144850000Y-86390000D02*
X137765000Y-86390000D01*
X145430000Y-86970000D02*
X144850000Y-86390000D01*
X145430000Y-87370000D02*
X145430000Y-86970000D01*
X165580000Y-101870000D02*
X164025000Y-103425000D01*
X171000000Y-101870000D02*
X165580000Y-101870000D01*
X166640000Y-109230000D02*
X166640000Y-106040000D01*
X166640000Y-106040000D02*
X164025000Y-103425000D01*
X167370000Y-109960000D02*
X166640000Y-109230000D01*
X167370000Y-115000000D02*
X167370000Y-109960000D01*
D31*
%TO.N,PC6_RESET*%
X149760000Y-89700000D02*
X147430000Y-87370000D01*
X151092500Y-89700000D02*
X149760000Y-89700000D01*
D30*
%TO.N,PD4_HC05RX*%
X146150000Y-93500000D02*
X147250000Y-93500000D01*
X146100000Y-93450000D02*
X146150000Y-93500000D01*
X145660000Y-91540000D02*
X146100000Y-91980000D01*
X140860000Y-91540000D02*
X145660000Y-91540000D01*
X140410000Y-91990000D02*
X140860000Y-91540000D01*
X140410000Y-104310000D02*
X140410000Y-91990000D01*
X146100000Y-91980000D02*
X146100000Y-93450000D01*
X142100000Y-106000000D02*
X140410000Y-104310000D01*
%TO.N,PD2_HC05TX*%
X139410000Y-95000000D02*
X132580000Y-101830000D01*
X139410000Y-91220000D02*
X139410000Y-95000000D01*
X132580000Y-101830000D02*
X130000000Y-101830000D01*
X140090000Y-90540000D02*
X139410000Y-91220000D01*
X147990000Y-90540000D02*
X140090000Y-90540000D01*
X148700000Y-91250000D02*
X147990000Y-90540000D01*
%TO.N,Net-(J1-Pin_2)*%
X136740000Y-103380000D02*
X138600000Y-105240000D01*
X130990000Y-103380000D02*
X136740000Y-103380000D01*
X138600000Y-105240000D02*
X138600000Y-106000000D01*
X130000000Y-104370000D02*
X130990000Y-103380000D01*
%TO.N,Net-(D1-K)*%
X137740000Y-91240000D02*
X137740000Y-88115000D01*
%TO.N,PB6_CRYS1*%
X144182500Y-97207500D02*
X144150000Y-97175000D01*
X145525000Y-97207500D02*
X144182500Y-97207500D01*
%TO.N,PB7_CRYS2*%
X144167500Y-98642500D02*
X144150000Y-98625000D01*
X145525000Y-98642500D02*
X144167500Y-98642500D01*
%TO.N,PB6_CRYS1*%
X145817500Y-97500000D02*
X145525000Y-97207500D01*
X147250000Y-97500000D02*
X145817500Y-97500000D01*
%TO.N,PB7_CRYS2*%
X145867500Y-98300000D02*
X145525000Y-98642500D01*
X147250000Y-98300000D02*
X145867500Y-98300000D01*
D31*
%TO.N,PC6_RESET*%
X151100000Y-91250000D02*
X151100000Y-89707500D01*
X151100000Y-89707500D02*
X151092500Y-89700000D01*
%TD*%
M02*
