%TF.GenerationSoftware,KiCad,Pcbnew,7.0.6*%
%TF.CreationDate,2024-03-10T00:39:51+00:00*%
%TF.ProjectId,RobotArmMK1.2,526f626f-7441-4726-9d4d-4b312e322e6b,rev?*%
%TF.SameCoordinates,Original*%
%TF.FileFunction,Legend,Top*%
%TF.FilePolarity,Positive*%
%FSLAX46Y46*%
G04 Gerber Fmt 4.6, Leading zero omitted, Abs format (unit mm)*
G04 Created by KiCad (PCBNEW 7.0.6) date 2024-03-10 00:39:51*
%MOMM*%
%LPD*%
G01*
G04 APERTURE LIST*
%ADD10C,0.200000*%
%ADD11C,0.240000*%
%ADD12C,0.150000*%
%ADD13C,0.120000*%
%ADD14C,0.152400*%
G04 APERTURE END LIST*
D10*
X157427292Y-96092742D02*
X157427292Y-94892742D01*
X157427292Y-95464171D02*
X158113006Y-95464171D01*
X158113006Y-96092742D02*
X158113006Y-94892742D01*
X159198721Y-96092742D02*
X159198721Y-95464171D01*
X159198721Y-95464171D02*
X159141578Y-95349885D01*
X159141578Y-95349885D02*
X159027292Y-95292742D01*
X159027292Y-95292742D02*
X158798721Y-95292742D01*
X158798721Y-95292742D02*
X158684435Y-95349885D01*
X159198721Y-96035600D02*
X159084435Y-96092742D01*
X159084435Y-96092742D02*
X158798721Y-96092742D01*
X158798721Y-96092742D02*
X158684435Y-96035600D01*
X158684435Y-96035600D02*
X158627292Y-95921314D01*
X158627292Y-95921314D02*
X158627292Y-95807028D01*
X158627292Y-95807028D02*
X158684435Y-95692742D01*
X158684435Y-95692742D02*
X158798721Y-95635600D01*
X158798721Y-95635600D02*
X159084435Y-95635600D01*
X159084435Y-95635600D02*
X159198721Y-95578457D01*
X159655863Y-95292742D02*
X159941577Y-96092742D01*
X159941577Y-96092742D02*
X160227292Y-95292742D01*
X160684435Y-96092742D02*
X160684435Y-95292742D01*
X160684435Y-94892742D02*
X160627292Y-94949885D01*
X160627292Y-94949885D02*
X160684435Y-95007028D01*
X160684435Y-95007028D02*
X160741578Y-94949885D01*
X160741578Y-94949885D02*
X160684435Y-94892742D01*
X160684435Y-94892742D02*
X160684435Y-95007028D01*
X161255864Y-95292742D02*
X161255864Y-96092742D01*
X161255864Y-95407028D02*
X161313007Y-95349885D01*
X161313007Y-95349885D02*
X161427292Y-95292742D01*
X161427292Y-95292742D02*
X161598721Y-95292742D01*
X161598721Y-95292742D02*
X161713007Y-95349885D01*
X161713007Y-95349885D02*
X161770150Y-95464171D01*
X161770150Y-95464171D02*
X161770150Y-96092742D01*
X162398721Y-94892742D02*
X162284435Y-95121314D01*
X163655864Y-95292742D02*
X164113007Y-95292742D01*
X163827293Y-96092742D02*
X163827293Y-95064171D01*
X163827293Y-95064171D02*
X163884436Y-94949885D01*
X163884436Y-94949885D02*
X163998721Y-94892742D01*
X163998721Y-94892742D02*
X164113007Y-94892742D01*
X165027293Y-95292742D02*
X165027293Y-96092742D01*
X164513007Y-95292742D02*
X164513007Y-95921314D01*
X164513007Y-95921314D02*
X164570150Y-96035600D01*
X164570150Y-96035600D02*
X164684435Y-96092742D01*
X164684435Y-96092742D02*
X164855864Y-96092742D01*
X164855864Y-96092742D02*
X164970150Y-96035600D01*
X164970150Y-96035600D02*
X165027293Y-95978457D01*
X165598721Y-95292742D02*
X165598721Y-96092742D01*
X165598721Y-95407028D02*
X165655864Y-95349885D01*
X165655864Y-95349885D02*
X165770149Y-95292742D01*
X165770149Y-95292742D02*
X165941578Y-95292742D01*
X165941578Y-95292742D02*
X166055864Y-95349885D01*
X166055864Y-95349885D02*
X166113007Y-95464171D01*
X166113007Y-95464171D02*
X166113007Y-96092742D01*
X166855863Y-95978457D02*
X166913006Y-96035600D01*
X166913006Y-96035600D02*
X166855863Y-96092742D01*
X166855863Y-96092742D02*
X166798721Y-96035600D01*
X166798721Y-96035600D02*
X166855863Y-95978457D01*
X166855863Y-95978457D02*
X166855863Y-96092742D01*
X166627292Y-94949885D02*
X166741578Y-94892742D01*
X166741578Y-94892742D02*
X167027292Y-94892742D01*
X167027292Y-94892742D02*
X167141578Y-94949885D01*
X167141578Y-94949885D02*
X167198721Y-95064171D01*
X167198721Y-95064171D02*
X167198721Y-95178457D01*
X167198721Y-95178457D02*
X167141578Y-95292742D01*
X167141578Y-95292742D02*
X167084435Y-95349885D01*
X167084435Y-95349885D02*
X166970149Y-95407028D01*
X166970149Y-95407028D02*
X166913006Y-95464171D01*
X166913006Y-95464171D02*
X166855863Y-95578457D01*
X166855863Y-95578457D02*
X166855863Y-95635600D01*
D11*
X171943608Y-89976377D02*
X172000751Y-90033520D01*
X172000751Y-90033520D02*
X171943608Y-90090662D01*
X171943608Y-90090662D02*
X171886465Y-90033520D01*
X171886465Y-90033520D02*
X171943608Y-89976377D01*
X171943608Y-89976377D02*
X171943608Y-90090662D01*
X171943608Y-89347805D02*
X172000751Y-89404948D01*
X172000751Y-89404948D02*
X171943608Y-89462091D01*
X171943608Y-89462091D02*
X171886465Y-89404948D01*
X171886465Y-89404948D02*
X171943608Y-89347805D01*
X171943608Y-89347805D02*
X171943608Y-89462091D01*
X172400751Y-90547805D02*
X172457894Y-90490662D01*
X172457894Y-90490662D02*
X172572180Y-90319234D01*
X172572180Y-90319234D02*
X172629323Y-90204948D01*
X172629323Y-90204948D02*
X172686465Y-90033520D01*
X172686465Y-90033520D02*
X172743608Y-89747805D01*
X172743608Y-89747805D02*
X172743608Y-89519234D01*
X172743608Y-89519234D02*
X172686465Y-89233520D01*
X172686465Y-89233520D02*
X172629323Y-89062091D01*
X172629323Y-89062091D02*
X172572180Y-88947805D01*
X172572180Y-88947805D02*
X172457894Y-88776377D01*
X172457894Y-88776377D02*
X172400751Y-88719234D01*
D12*
X144859580Y-95766666D02*
X144907200Y-95814285D01*
X144907200Y-95814285D02*
X144954819Y-95957142D01*
X144954819Y-95957142D02*
X144954819Y-96052380D01*
X144954819Y-96052380D02*
X144907200Y-96195237D01*
X144907200Y-96195237D02*
X144811961Y-96290475D01*
X144811961Y-96290475D02*
X144716723Y-96338094D01*
X144716723Y-96338094D02*
X144526247Y-96385713D01*
X144526247Y-96385713D02*
X144383390Y-96385713D01*
X144383390Y-96385713D02*
X144192914Y-96338094D01*
X144192914Y-96338094D02*
X144097676Y-96290475D01*
X144097676Y-96290475D02*
X144002438Y-96195237D01*
X144002438Y-96195237D02*
X143954819Y-96052380D01*
X143954819Y-96052380D02*
X143954819Y-95957142D01*
X143954819Y-95957142D02*
X144002438Y-95814285D01*
X144002438Y-95814285D02*
X144050057Y-95766666D01*
X143954819Y-95433332D02*
X143954819Y-94814285D01*
X143954819Y-94814285D02*
X144335771Y-95147618D01*
X144335771Y-95147618D02*
X144335771Y-95004761D01*
X144335771Y-95004761D02*
X144383390Y-94909523D01*
X144383390Y-94909523D02*
X144431009Y-94861904D01*
X144431009Y-94861904D02*
X144526247Y-94814285D01*
X144526247Y-94814285D02*
X144764342Y-94814285D01*
X144764342Y-94814285D02*
X144859580Y-94861904D01*
X144859580Y-94861904D02*
X144907200Y-94909523D01*
X144907200Y-94909523D02*
X144954819Y-95004761D01*
X144954819Y-95004761D02*
X144954819Y-95290475D01*
X144954819Y-95290475D02*
X144907200Y-95385713D01*
X144907200Y-95385713D02*
X144859580Y-95433332D01*
X144884580Y-100766666D02*
X144932200Y-100814285D01*
X144932200Y-100814285D02*
X144979819Y-100957142D01*
X144979819Y-100957142D02*
X144979819Y-101052380D01*
X144979819Y-101052380D02*
X144932200Y-101195237D01*
X144932200Y-101195237D02*
X144836961Y-101290475D01*
X144836961Y-101290475D02*
X144741723Y-101338094D01*
X144741723Y-101338094D02*
X144551247Y-101385713D01*
X144551247Y-101385713D02*
X144408390Y-101385713D01*
X144408390Y-101385713D02*
X144217914Y-101338094D01*
X144217914Y-101338094D02*
X144122676Y-101290475D01*
X144122676Y-101290475D02*
X144027438Y-101195237D01*
X144027438Y-101195237D02*
X143979819Y-101052380D01*
X143979819Y-101052380D02*
X143979819Y-100957142D01*
X143979819Y-100957142D02*
X144027438Y-100814285D01*
X144027438Y-100814285D02*
X144075057Y-100766666D01*
X144313152Y-99909523D02*
X144979819Y-99909523D01*
X143932200Y-100147618D02*
X144646485Y-100385713D01*
X144646485Y-100385713D02*
X144646485Y-99766666D01*
X151333333Y-89059580D02*
X151285714Y-89107200D01*
X151285714Y-89107200D02*
X151142857Y-89154819D01*
X151142857Y-89154819D02*
X151047619Y-89154819D01*
X151047619Y-89154819D02*
X150904762Y-89107200D01*
X150904762Y-89107200D02*
X150809524Y-89011961D01*
X150809524Y-89011961D02*
X150761905Y-88916723D01*
X150761905Y-88916723D02*
X150714286Y-88726247D01*
X150714286Y-88726247D02*
X150714286Y-88583390D01*
X150714286Y-88583390D02*
X150761905Y-88392914D01*
X150761905Y-88392914D02*
X150809524Y-88297676D01*
X150809524Y-88297676D02*
X150904762Y-88202438D01*
X150904762Y-88202438D02*
X151047619Y-88154819D01*
X151047619Y-88154819D02*
X151142857Y-88154819D01*
X151142857Y-88154819D02*
X151285714Y-88202438D01*
X151285714Y-88202438D02*
X151333333Y-88250057D01*
X152238095Y-88154819D02*
X151761905Y-88154819D01*
X151761905Y-88154819D02*
X151714286Y-88631009D01*
X151714286Y-88631009D02*
X151761905Y-88583390D01*
X151761905Y-88583390D02*
X151857143Y-88535771D01*
X151857143Y-88535771D02*
X152095238Y-88535771D01*
X152095238Y-88535771D02*
X152190476Y-88583390D01*
X152190476Y-88583390D02*
X152238095Y-88631009D01*
X152238095Y-88631009D02*
X152285714Y-88726247D01*
X152285714Y-88726247D02*
X152285714Y-88964342D01*
X152285714Y-88964342D02*
X152238095Y-89059580D01*
X152238095Y-89059580D02*
X152190476Y-89107200D01*
X152190476Y-89107200D02*
X152095238Y-89154819D01*
X152095238Y-89154819D02*
X151857143Y-89154819D01*
X151857143Y-89154819D02*
X151761905Y-89107200D01*
X151761905Y-89107200D02*
X151714286Y-89059580D01*
X157454819Y-103771904D02*
X158264342Y-103771904D01*
X158264342Y-103771904D02*
X158359580Y-103724285D01*
X158359580Y-103724285D02*
X158407200Y-103676666D01*
X158407200Y-103676666D02*
X158454819Y-103581428D01*
X158454819Y-103581428D02*
X158454819Y-103390952D01*
X158454819Y-103390952D02*
X158407200Y-103295714D01*
X158407200Y-103295714D02*
X158359580Y-103248095D01*
X158359580Y-103248095D02*
X158264342Y-103200476D01*
X158264342Y-103200476D02*
X157454819Y-103200476D01*
X157550057Y-102771904D02*
X157502438Y-102724285D01*
X157502438Y-102724285D02*
X157454819Y-102629047D01*
X157454819Y-102629047D02*
X157454819Y-102390952D01*
X157454819Y-102390952D02*
X157502438Y-102295714D01*
X157502438Y-102295714D02*
X157550057Y-102248095D01*
X157550057Y-102248095D02*
X157645295Y-102200476D01*
X157645295Y-102200476D02*
X157740533Y-102200476D01*
X157740533Y-102200476D02*
X157883390Y-102248095D01*
X157883390Y-102248095D02*
X158454819Y-102819523D01*
X158454819Y-102819523D02*
X158454819Y-102200476D01*
X160607619Y-110954819D02*
X160607619Y-109954819D01*
X160607619Y-109954819D02*
X161179047Y-110954819D01*
X161179047Y-110954819D02*
X161179047Y-109954819D01*
X162036190Y-110907200D02*
X161940952Y-110954819D01*
X161940952Y-110954819D02*
X161750476Y-110954819D01*
X161750476Y-110954819D02*
X161655238Y-110907200D01*
X161655238Y-110907200D02*
X161607619Y-110811961D01*
X161607619Y-110811961D02*
X161607619Y-110431009D01*
X161607619Y-110431009D02*
X161655238Y-110335771D01*
X161655238Y-110335771D02*
X161750476Y-110288152D01*
X161750476Y-110288152D02*
X161940952Y-110288152D01*
X161940952Y-110288152D02*
X162036190Y-110335771D01*
X162036190Y-110335771D02*
X162083809Y-110431009D01*
X162083809Y-110431009D02*
X162083809Y-110526247D01*
X162083809Y-110526247D02*
X161607619Y-110621485D01*
X162655238Y-110954819D02*
X162560000Y-110907200D01*
X162560000Y-110907200D02*
X162512381Y-110859580D01*
X162512381Y-110859580D02*
X162464762Y-110764342D01*
X162464762Y-110764342D02*
X162464762Y-110478628D01*
X162464762Y-110478628D02*
X162512381Y-110383390D01*
X162512381Y-110383390D02*
X162560000Y-110335771D01*
X162560000Y-110335771D02*
X162655238Y-110288152D01*
X162655238Y-110288152D02*
X162798095Y-110288152D01*
X162798095Y-110288152D02*
X162893333Y-110335771D01*
X162893333Y-110335771D02*
X162940952Y-110383390D01*
X162940952Y-110383390D02*
X162988571Y-110478628D01*
X162988571Y-110478628D02*
X162988571Y-110764342D01*
X162988571Y-110764342D02*
X162940952Y-110859580D01*
X162940952Y-110859580D02*
X162893333Y-110907200D01*
X162893333Y-110907200D02*
X162798095Y-110954819D01*
X162798095Y-110954819D02*
X162655238Y-110954819D01*
X163417143Y-110288152D02*
X163417143Y-111288152D01*
X163417143Y-110335771D02*
X163512381Y-110288152D01*
X163512381Y-110288152D02*
X163702857Y-110288152D01*
X163702857Y-110288152D02*
X163798095Y-110335771D01*
X163798095Y-110335771D02*
X163845714Y-110383390D01*
X163845714Y-110383390D02*
X163893333Y-110478628D01*
X163893333Y-110478628D02*
X163893333Y-110764342D01*
X163893333Y-110764342D02*
X163845714Y-110859580D01*
X163845714Y-110859580D02*
X163798095Y-110907200D01*
X163798095Y-110907200D02*
X163702857Y-110954819D01*
X163702857Y-110954819D02*
X163512381Y-110954819D01*
X163512381Y-110954819D02*
X163417143Y-110907200D01*
X164321905Y-110954819D02*
X164321905Y-110288152D01*
X164321905Y-109954819D02*
X164274286Y-110002438D01*
X164274286Y-110002438D02*
X164321905Y-110050057D01*
X164321905Y-110050057D02*
X164369524Y-110002438D01*
X164369524Y-110002438D02*
X164321905Y-109954819D01*
X164321905Y-109954819D02*
X164321905Y-110050057D01*
X164702857Y-110954819D02*
X165226666Y-110288152D01*
X164702857Y-110288152D02*
X165226666Y-110954819D01*
X165988571Y-110907200D02*
X165893333Y-110954819D01*
X165893333Y-110954819D02*
X165702857Y-110954819D01*
X165702857Y-110954819D02*
X165607619Y-110907200D01*
X165607619Y-110907200D02*
X165560000Y-110811961D01*
X165560000Y-110811961D02*
X165560000Y-110431009D01*
X165560000Y-110431009D02*
X165607619Y-110335771D01*
X165607619Y-110335771D02*
X165702857Y-110288152D01*
X165702857Y-110288152D02*
X165893333Y-110288152D01*
X165893333Y-110288152D02*
X165988571Y-110335771D01*
X165988571Y-110335771D02*
X166036190Y-110431009D01*
X166036190Y-110431009D02*
X166036190Y-110526247D01*
X166036190Y-110526247D02*
X165560000Y-110621485D01*
X166607619Y-110954819D02*
X166512381Y-110907200D01*
X166512381Y-110907200D02*
X166464762Y-110811961D01*
X166464762Y-110811961D02*
X166464762Y-109954819D01*
X138767262Y-110907200D02*
X138910119Y-110954819D01*
X138910119Y-110954819D02*
X139148214Y-110954819D01*
X139148214Y-110954819D02*
X139243452Y-110907200D01*
X139243452Y-110907200D02*
X139291071Y-110859580D01*
X139291071Y-110859580D02*
X139338690Y-110764342D01*
X139338690Y-110764342D02*
X139338690Y-110669104D01*
X139338690Y-110669104D02*
X139291071Y-110573866D01*
X139291071Y-110573866D02*
X139243452Y-110526247D01*
X139243452Y-110526247D02*
X139148214Y-110478628D01*
X139148214Y-110478628D02*
X138957738Y-110431009D01*
X138957738Y-110431009D02*
X138862500Y-110383390D01*
X138862500Y-110383390D02*
X138814881Y-110335771D01*
X138814881Y-110335771D02*
X138767262Y-110240533D01*
X138767262Y-110240533D02*
X138767262Y-110145295D01*
X138767262Y-110145295D02*
X138814881Y-110050057D01*
X138814881Y-110050057D02*
X138862500Y-110002438D01*
X138862500Y-110002438D02*
X138957738Y-109954819D01*
X138957738Y-109954819D02*
X139195833Y-109954819D01*
X139195833Y-109954819D02*
X139338690Y-110002438D01*
X139672024Y-109954819D02*
X140291071Y-109954819D01*
X140291071Y-109954819D02*
X139957738Y-110335771D01*
X139957738Y-110335771D02*
X140100595Y-110335771D01*
X140100595Y-110335771D02*
X140195833Y-110383390D01*
X140195833Y-110383390D02*
X140243452Y-110431009D01*
X140243452Y-110431009D02*
X140291071Y-110526247D01*
X140291071Y-110526247D02*
X140291071Y-110764342D01*
X140291071Y-110764342D02*
X140243452Y-110859580D01*
X140243452Y-110859580D02*
X140195833Y-110907200D01*
X140195833Y-110907200D02*
X140100595Y-110954819D01*
X140100595Y-110954819D02*
X139814881Y-110954819D01*
X139814881Y-110954819D02*
X139719643Y-110907200D01*
X139719643Y-110907200D02*
X139672024Y-110859580D01*
X141433929Y-110907200D02*
X141576786Y-110954819D01*
X141576786Y-110954819D02*
X141814881Y-110954819D01*
X141814881Y-110954819D02*
X141910119Y-110907200D01*
X141910119Y-110907200D02*
X141957738Y-110859580D01*
X141957738Y-110859580D02*
X142005357Y-110764342D01*
X142005357Y-110764342D02*
X142005357Y-110669104D01*
X142005357Y-110669104D02*
X141957738Y-110573866D01*
X141957738Y-110573866D02*
X141910119Y-110526247D01*
X141910119Y-110526247D02*
X141814881Y-110478628D01*
X141814881Y-110478628D02*
X141624405Y-110431009D01*
X141624405Y-110431009D02*
X141529167Y-110383390D01*
X141529167Y-110383390D02*
X141481548Y-110335771D01*
X141481548Y-110335771D02*
X141433929Y-110240533D01*
X141433929Y-110240533D02*
X141433929Y-110145295D01*
X141433929Y-110145295D02*
X141481548Y-110050057D01*
X141481548Y-110050057D02*
X141529167Y-110002438D01*
X141529167Y-110002438D02*
X141624405Y-109954819D01*
X141624405Y-109954819D02*
X141862500Y-109954819D01*
X141862500Y-109954819D02*
X142005357Y-110002438D01*
X142862500Y-110288152D02*
X142862500Y-110954819D01*
X142624405Y-109907200D02*
X142386310Y-110621485D01*
X142386310Y-110621485D02*
X143005357Y-110621485D01*
X142933333Y-104854819D02*
X142600000Y-104378628D01*
X142361905Y-104854819D02*
X142361905Y-103854819D01*
X142361905Y-103854819D02*
X142742857Y-103854819D01*
X142742857Y-103854819D02*
X142838095Y-103902438D01*
X142838095Y-103902438D02*
X142885714Y-103950057D01*
X142885714Y-103950057D02*
X142933333Y-104045295D01*
X142933333Y-104045295D02*
X142933333Y-104188152D01*
X142933333Y-104188152D02*
X142885714Y-104283390D01*
X142885714Y-104283390D02*
X142838095Y-104331009D01*
X142838095Y-104331009D02*
X142742857Y-104378628D01*
X142742857Y-104378628D02*
X142361905Y-104378628D01*
X143314286Y-103950057D02*
X143361905Y-103902438D01*
X143361905Y-103902438D02*
X143457143Y-103854819D01*
X143457143Y-103854819D02*
X143695238Y-103854819D01*
X143695238Y-103854819D02*
X143790476Y-103902438D01*
X143790476Y-103902438D02*
X143838095Y-103950057D01*
X143838095Y-103950057D02*
X143885714Y-104045295D01*
X143885714Y-104045295D02*
X143885714Y-104140533D01*
X143885714Y-104140533D02*
X143838095Y-104283390D01*
X143838095Y-104283390D02*
X143266667Y-104854819D01*
X143266667Y-104854819D02*
X143885714Y-104854819D01*
X153933333Y-104709580D02*
X153885714Y-104757200D01*
X153885714Y-104757200D02*
X153742857Y-104804819D01*
X153742857Y-104804819D02*
X153647619Y-104804819D01*
X153647619Y-104804819D02*
X153504762Y-104757200D01*
X153504762Y-104757200D02*
X153409524Y-104661961D01*
X153409524Y-104661961D02*
X153361905Y-104566723D01*
X153361905Y-104566723D02*
X153314286Y-104376247D01*
X153314286Y-104376247D02*
X153314286Y-104233390D01*
X153314286Y-104233390D02*
X153361905Y-104042914D01*
X153361905Y-104042914D02*
X153409524Y-103947676D01*
X153409524Y-103947676D02*
X153504762Y-103852438D01*
X153504762Y-103852438D02*
X153647619Y-103804819D01*
X153647619Y-103804819D02*
X153742857Y-103804819D01*
X153742857Y-103804819D02*
X153885714Y-103852438D01*
X153885714Y-103852438D02*
X153933333Y-103900057D01*
X154885714Y-104804819D02*
X154314286Y-104804819D01*
X154600000Y-104804819D02*
X154600000Y-103804819D01*
X154600000Y-103804819D02*
X154504762Y-103947676D01*
X154504762Y-103947676D02*
X154409524Y-104042914D01*
X154409524Y-104042914D02*
X154314286Y-104090533D01*
X136714819Y-87968094D02*
X135714819Y-87968094D01*
X135714819Y-87968094D02*
X135714819Y-87729999D01*
X135714819Y-87729999D02*
X135762438Y-87587142D01*
X135762438Y-87587142D02*
X135857676Y-87491904D01*
X135857676Y-87491904D02*
X135952914Y-87444285D01*
X135952914Y-87444285D02*
X136143390Y-87396666D01*
X136143390Y-87396666D02*
X136286247Y-87396666D01*
X136286247Y-87396666D02*
X136476723Y-87444285D01*
X136476723Y-87444285D02*
X136571961Y-87491904D01*
X136571961Y-87491904D02*
X136667200Y-87587142D01*
X136667200Y-87587142D02*
X136714819Y-87729999D01*
X136714819Y-87729999D02*
X136714819Y-87968094D01*
X136714819Y-86444285D02*
X136714819Y-87015713D01*
X136714819Y-86729999D02*
X135714819Y-86729999D01*
X135714819Y-86729999D02*
X135857676Y-86825237D01*
X135857676Y-86825237D02*
X135952914Y-86920475D01*
X135952914Y-86920475D02*
X136000533Y-87015713D01*
X152293809Y-110954819D02*
X152293809Y-109954819D01*
X152293809Y-109954819D02*
X152674761Y-109954819D01*
X152674761Y-109954819D02*
X152769999Y-110002438D01*
X152769999Y-110002438D02*
X152817618Y-110050057D01*
X152817618Y-110050057D02*
X152865237Y-110145295D01*
X152865237Y-110145295D02*
X152865237Y-110288152D01*
X152865237Y-110288152D02*
X152817618Y-110383390D01*
X152817618Y-110383390D02*
X152769999Y-110431009D01*
X152769999Y-110431009D02*
X152674761Y-110478628D01*
X152674761Y-110478628D02*
X152293809Y-110478628D01*
X153436666Y-110954819D02*
X153341428Y-110907200D01*
X153341428Y-110907200D02*
X153293809Y-110859580D01*
X153293809Y-110859580D02*
X153246190Y-110764342D01*
X153246190Y-110764342D02*
X153246190Y-110478628D01*
X153246190Y-110478628D02*
X153293809Y-110383390D01*
X153293809Y-110383390D02*
X153341428Y-110335771D01*
X153341428Y-110335771D02*
X153436666Y-110288152D01*
X153436666Y-110288152D02*
X153579523Y-110288152D01*
X153579523Y-110288152D02*
X153674761Y-110335771D01*
X153674761Y-110335771D02*
X153722380Y-110383390D01*
X153722380Y-110383390D02*
X153769999Y-110478628D01*
X153769999Y-110478628D02*
X153769999Y-110764342D01*
X153769999Y-110764342D02*
X153722380Y-110859580D01*
X153722380Y-110859580D02*
X153674761Y-110907200D01*
X153674761Y-110907200D02*
X153579523Y-110954819D01*
X153579523Y-110954819D02*
X153436666Y-110954819D01*
X154103333Y-110288152D02*
X154293809Y-110954819D01*
X154293809Y-110954819D02*
X154484285Y-110478628D01*
X154484285Y-110478628D02*
X154674761Y-110954819D01*
X154674761Y-110954819D02*
X154865237Y-110288152D01*
X155627142Y-110907200D02*
X155531904Y-110954819D01*
X155531904Y-110954819D02*
X155341428Y-110954819D01*
X155341428Y-110954819D02*
X155246190Y-110907200D01*
X155246190Y-110907200D02*
X155198571Y-110811961D01*
X155198571Y-110811961D02*
X155198571Y-110431009D01*
X155198571Y-110431009D02*
X155246190Y-110335771D01*
X155246190Y-110335771D02*
X155341428Y-110288152D01*
X155341428Y-110288152D02*
X155531904Y-110288152D01*
X155531904Y-110288152D02*
X155627142Y-110335771D01*
X155627142Y-110335771D02*
X155674761Y-110431009D01*
X155674761Y-110431009D02*
X155674761Y-110526247D01*
X155674761Y-110526247D02*
X155198571Y-110621485D01*
X156103333Y-110954819D02*
X156103333Y-110288152D01*
X156103333Y-110478628D02*
X156150952Y-110383390D01*
X156150952Y-110383390D02*
X156198571Y-110335771D01*
X156198571Y-110335771D02*
X156293809Y-110288152D01*
X156293809Y-110288152D02*
X156389047Y-110288152D01*
X145404762Y-110907200D02*
X145547619Y-110954819D01*
X145547619Y-110954819D02*
X145785714Y-110954819D01*
X145785714Y-110954819D02*
X145880952Y-110907200D01*
X145880952Y-110907200D02*
X145928571Y-110859580D01*
X145928571Y-110859580D02*
X145976190Y-110764342D01*
X145976190Y-110764342D02*
X145976190Y-110669104D01*
X145976190Y-110669104D02*
X145928571Y-110573866D01*
X145928571Y-110573866D02*
X145880952Y-110526247D01*
X145880952Y-110526247D02*
X145785714Y-110478628D01*
X145785714Y-110478628D02*
X145595238Y-110431009D01*
X145595238Y-110431009D02*
X145500000Y-110383390D01*
X145500000Y-110383390D02*
X145452381Y-110335771D01*
X145452381Y-110335771D02*
X145404762Y-110240533D01*
X145404762Y-110240533D02*
X145404762Y-110145295D01*
X145404762Y-110145295D02*
X145452381Y-110050057D01*
X145452381Y-110050057D02*
X145500000Y-110002438D01*
X145500000Y-110002438D02*
X145595238Y-109954819D01*
X145595238Y-109954819D02*
X145833333Y-109954819D01*
X145833333Y-109954819D02*
X145976190Y-110002438D01*
X146880952Y-109954819D02*
X146404762Y-109954819D01*
X146404762Y-109954819D02*
X146357143Y-110431009D01*
X146357143Y-110431009D02*
X146404762Y-110383390D01*
X146404762Y-110383390D02*
X146500000Y-110335771D01*
X146500000Y-110335771D02*
X146738095Y-110335771D01*
X146738095Y-110335771D02*
X146833333Y-110383390D01*
X146833333Y-110383390D02*
X146880952Y-110431009D01*
X146880952Y-110431009D02*
X146928571Y-110526247D01*
X146928571Y-110526247D02*
X146928571Y-110764342D01*
X146928571Y-110764342D02*
X146880952Y-110859580D01*
X146880952Y-110859580D02*
X146833333Y-110907200D01*
X146833333Y-110907200D02*
X146738095Y-110954819D01*
X146738095Y-110954819D02*
X146500000Y-110954819D01*
X146500000Y-110954819D02*
X146404762Y-110907200D01*
X146404762Y-110907200D02*
X146357143Y-110859580D01*
X148071429Y-110907200D02*
X148214286Y-110954819D01*
X148214286Y-110954819D02*
X148452381Y-110954819D01*
X148452381Y-110954819D02*
X148547619Y-110907200D01*
X148547619Y-110907200D02*
X148595238Y-110859580D01*
X148595238Y-110859580D02*
X148642857Y-110764342D01*
X148642857Y-110764342D02*
X148642857Y-110669104D01*
X148642857Y-110669104D02*
X148595238Y-110573866D01*
X148595238Y-110573866D02*
X148547619Y-110526247D01*
X148547619Y-110526247D02*
X148452381Y-110478628D01*
X148452381Y-110478628D02*
X148261905Y-110431009D01*
X148261905Y-110431009D02*
X148166667Y-110383390D01*
X148166667Y-110383390D02*
X148119048Y-110335771D01*
X148119048Y-110335771D02*
X148071429Y-110240533D01*
X148071429Y-110240533D02*
X148071429Y-110145295D01*
X148071429Y-110145295D02*
X148119048Y-110050057D01*
X148119048Y-110050057D02*
X148166667Y-110002438D01*
X148166667Y-110002438D02*
X148261905Y-109954819D01*
X148261905Y-109954819D02*
X148500000Y-109954819D01*
X148500000Y-109954819D02*
X148642857Y-110002438D01*
X149500000Y-109954819D02*
X149309524Y-109954819D01*
X149309524Y-109954819D02*
X149214286Y-110002438D01*
X149214286Y-110002438D02*
X149166667Y-110050057D01*
X149166667Y-110050057D02*
X149071429Y-110192914D01*
X149071429Y-110192914D02*
X149023810Y-110383390D01*
X149023810Y-110383390D02*
X149023810Y-110764342D01*
X149023810Y-110764342D02*
X149071429Y-110859580D01*
X149071429Y-110859580D02*
X149119048Y-110907200D01*
X149119048Y-110907200D02*
X149214286Y-110954819D01*
X149214286Y-110954819D02*
X149404762Y-110954819D01*
X149404762Y-110954819D02*
X149500000Y-110907200D01*
X149500000Y-110907200D02*
X149547619Y-110859580D01*
X149547619Y-110859580D02*
X149595238Y-110764342D01*
X149595238Y-110764342D02*
X149595238Y-110526247D01*
X149595238Y-110526247D02*
X149547619Y-110431009D01*
X149547619Y-110431009D02*
X149500000Y-110383390D01*
X149500000Y-110383390D02*
X149404762Y-110335771D01*
X149404762Y-110335771D02*
X149214286Y-110335771D01*
X149214286Y-110335771D02*
X149119048Y-110383390D01*
X149119048Y-110383390D02*
X149071429Y-110431009D01*
X149071429Y-110431009D02*
X149023810Y-110526247D01*
X129424819Y-91583333D02*
X130139104Y-91583333D01*
X130139104Y-91583333D02*
X130281961Y-91630952D01*
X130281961Y-91630952D02*
X130377200Y-91726190D01*
X130377200Y-91726190D02*
X130424819Y-91869047D01*
X130424819Y-91869047D02*
X130424819Y-91964285D01*
X130424819Y-90583333D02*
X130424819Y-91154761D01*
X130424819Y-90869047D02*
X129424819Y-90869047D01*
X129424819Y-90869047D02*
X129567676Y-90964285D01*
X129567676Y-90964285D02*
X129662914Y-91059523D01*
X129662914Y-91059523D02*
X129710533Y-91154761D01*
X132454819Y-91857142D02*
X131454819Y-91857142D01*
X131931009Y-91857142D02*
X131931009Y-91285714D01*
X132454819Y-91285714D02*
X131454819Y-91285714D01*
X132359580Y-90238095D02*
X132407200Y-90285714D01*
X132407200Y-90285714D02*
X132454819Y-90428571D01*
X132454819Y-90428571D02*
X132454819Y-90523809D01*
X132454819Y-90523809D02*
X132407200Y-90666666D01*
X132407200Y-90666666D02*
X132311961Y-90761904D01*
X132311961Y-90761904D02*
X132216723Y-90809523D01*
X132216723Y-90809523D02*
X132026247Y-90857142D01*
X132026247Y-90857142D02*
X131883390Y-90857142D01*
X131883390Y-90857142D02*
X131692914Y-90809523D01*
X131692914Y-90809523D02*
X131597676Y-90761904D01*
X131597676Y-90761904D02*
X131502438Y-90666666D01*
X131502438Y-90666666D02*
X131454819Y-90523809D01*
X131454819Y-90523809D02*
X131454819Y-90428571D01*
X131454819Y-90428571D02*
X131502438Y-90285714D01*
X131502438Y-90285714D02*
X131550057Y-90238095D01*
X132073866Y-89809523D02*
X132073866Y-89047619D01*
X131454819Y-88380952D02*
X131454819Y-88285714D01*
X131454819Y-88285714D02*
X131502438Y-88190476D01*
X131502438Y-88190476D02*
X131550057Y-88142857D01*
X131550057Y-88142857D02*
X131645295Y-88095238D01*
X131645295Y-88095238D02*
X131835771Y-88047619D01*
X131835771Y-88047619D02*
X132073866Y-88047619D01*
X132073866Y-88047619D02*
X132264342Y-88095238D01*
X132264342Y-88095238D02*
X132359580Y-88142857D01*
X132359580Y-88142857D02*
X132407200Y-88190476D01*
X132407200Y-88190476D02*
X132454819Y-88285714D01*
X132454819Y-88285714D02*
X132454819Y-88380952D01*
X132454819Y-88380952D02*
X132407200Y-88476190D01*
X132407200Y-88476190D02*
X132359580Y-88523809D01*
X132359580Y-88523809D02*
X132264342Y-88571428D01*
X132264342Y-88571428D02*
X132073866Y-88619047D01*
X132073866Y-88619047D02*
X131835771Y-88619047D01*
X131835771Y-88619047D02*
X131645295Y-88571428D01*
X131645295Y-88571428D02*
X131550057Y-88523809D01*
X131550057Y-88523809D02*
X131502438Y-88476190D01*
X131502438Y-88476190D02*
X131454819Y-88380952D01*
X131454819Y-87142857D02*
X131454819Y-87619047D01*
X131454819Y-87619047D02*
X131931009Y-87666666D01*
X131931009Y-87666666D02*
X131883390Y-87619047D01*
X131883390Y-87619047D02*
X131835771Y-87523809D01*
X131835771Y-87523809D02*
X131835771Y-87285714D01*
X131835771Y-87285714D02*
X131883390Y-87190476D01*
X131883390Y-87190476D02*
X131931009Y-87142857D01*
X131931009Y-87142857D02*
X132026247Y-87095238D01*
X132026247Y-87095238D02*
X132264342Y-87095238D01*
X132264342Y-87095238D02*
X132359580Y-87142857D01*
X132359580Y-87142857D02*
X132407200Y-87190476D01*
X132407200Y-87190476D02*
X132454819Y-87285714D01*
X132454819Y-87285714D02*
X132454819Y-87523809D01*
X132454819Y-87523809D02*
X132407200Y-87619047D01*
X132407200Y-87619047D02*
X132359580Y-87666666D01*
X143133333Y-92209580D02*
X143085714Y-92257200D01*
X143085714Y-92257200D02*
X142942857Y-92304819D01*
X142942857Y-92304819D02*
X142847619Y-92304819D01*
X142847619Y-92304819D02*
X142704762Y-92257200D01*
X142704762Y-92257200D02*
X142609524Y-92161961D01*
X142609524Y-92161961D02*
X142561905Y-92066723D01*
X142561905Y-92066723D02*
X142514286Y-91876247D01*
X142514286Y-91876247D02*
X142514286Y-91733390D01*
X142514286Y-91733390D02*
X142561905Y-91542914D01*
X142561905Y-91542914D02*
X142609524Y-91447676D01*
X142609524Y-91447676D02*
X142704762Y-91352438D01*
X142704762Y-91352438D02*
X142847619Y-91304819D01*
X142847619Y-91304819D02*
X142942857Y-91304819D01*
X142942857Y-91304819D02*
X143085714Y-91352438D01*
X143085714Y-91352438D02*
X143133333Y-91400057D01*
X143514286Y-91400057D02*
X143561905Y-91352438D01*
X143561905Y-91352438D02*
X143657143Y-91304819D01*
X143657143Y-91304819D02*
X143895238Y-91304819D01*
X143895238Y-91304819D02*
X143990476Y-91352438D01*
X143990476Y-91352438D02*
X144038095Y-91400057D01*
X144038095Y-91400057D02*
X144085714Y-91495295D01*
X144085714Y-91495295D02*
X144085714Y-91590533D01*
X144085714Y-91590533D02*
X144038095Y-91733390D01*
X144038095Y-91733390D02*
X143466667Y-92304819D01*
X143466667Y-92304819D02*
X144085714Y-92304819D01*
X161035713Y-84404819D02*
X160702380Y-83928628D01*
X160464285Y-84404819D02*
X160464285Y-83404819D01*
X160464285Y-83404819D02*
X160845237Y-83404819D01*
X160845237Y-83404819D02*
X160940475Y-83452438D01*
X160940475Y-83452438D02*
X160988094Y-83500057D01*
X160988094Y-83500057D02*
X161035713Y-83595295D01*
X161035713Y-83595295D02*
X161035713Y-83738152D01*
X161035713Y-83738152D02*
X160988094Y-83833390D01*
X160988094Y-83833390D02*
X160940475Y-83881009D01*
X160940475Y-83881009D02*
X160845237Y-83928628D01*
X160845237Y-83928628D02*
X160464285Y-83928628D01*
X161845237Y-84357200D02*
X161749999Y-84404819D01*
X161749999Y-84404819D02*
X161559523Y-84404819D01*
X161559523Y-84404819D02*
X161464285Y-84357200D01*
X161464285Y-84357200D02*
X161416666Y-84261961D01*
X161416666Y-84261961D02*
X161416666Y-83881009D01*
X161416666Y-83881009D02*
X161464285Y-83785771D01*
X161464285Y-83785771D02*
X161559523Y-83738152D01*
X161559523Y-83738152D02*
X161749999Y-83738152D01*
X161749999Y-83738152D02*
X161845237Y-83785771D01*
X161845237Y-83785771D02*
X161892856Y-83881009D01*
X161892856Y-83881009D02*
X161892856Y-83976247D01*
X161892856Y-83976247D02*
X161416666Y-84071485D01*
X162273809Y-84357200D02*
X162369047Y-84404819D01*
X162369047Y-84404819D02*
X162559523Y-84404819D01*
X162559523Y-84404819D02*
X162654761Y-84357200D01*
X162654761Y-84357200D02*
X162702380Y-84261961D01*
X162702380Y-84261961D02*
X162702380Y-84214342D01*
X162702380Y-84214342D02*
X162654761Y-84119104D01*
X162654761Y-84119104D02*
X162559523Y-84071485D01*
X162559523Y-84071485D02*
X162416666Y-84071485D01*
X162416666Y-84071485D02*
X162321428Y-84023866D01*
X162321428Y-84023866D02*
X162273809Y-83928628D01*
X162273809Y-83928628D02*
X162273809Y-83881009D01*
X162273809Y-83881009D02*
X162321428Y-83785771D01*
X162321428Y-83785771D02*
X162416666Y-83738152D01*
X162416666Y-83738152D02*
X162559523Y-83738152D01*
X162559523Y-83738152D02*
X162654761Y-83785771D01*
X163511904Y-84357200D02*
X163416666Y-84404819D01*
X163416666Y-84404819D02*
X163226190Y-84404819D01*
X163226190Y-84404819D02*
X163130952Y-84357200D01*
X163130952Y-84357200D02*
X163083333Y-84261961D01*
X163083333Y-84261961D02*
X163083333Y-83881009D01*
X163083333Y-83881009D02*
X163130952Y-83785771D01*
X163130952Y-83785771D02*
X163226190Y-83738152D01*
X163226190Y-83738152D02*
X163416666Y-83738152D01*
X163416666Y-83738152D02*
X163511904Y-83785771D01*
X163511904Y-83785771D02*
X163559523Y-83881009D01*
X163559523Y-83881009D02*
X163559523Y-83976247D01*
X163559523Y-83976247D02*
X163083333Y-84071485D01*
X163845238Y-83738152D02*
X164226190Y-83738152D01*
X163988095Y-83404819D02*
X163988095Y-84261961D01*
X163988095Y-84261961D02*
X164035714Y-84357200D01*
X164035714Y-84357200D02*
X164130952Y-84404819D01*
X164130952Y-84404819D02*
X164226190Y-84404819D01*
X165083333Y-84404819D02*
X164511905Y-84404819D01*
X164797619Y-84404819D02*
X164797619Y-83404819D01*
X164797619Y-83404819D02*
X164702381Y-83547676D01*
X164702381Y-83547676D02*
X164607143Y-83642914D01*
X164607143Y-83642914D02*
X164511905Y-83690533D01*
X170454819Y-110083333D02*
X171169104Y-110083333D01*
X171169104Y-110083333D02*
X171311961Y-110130952D01*
X171311961Y-110130952D02*
X171407200Y-110226190D01*
X171407200Y-110226190D02*
X171454819Y-110369047D01*
X171454819Y-110369047D02*
X171454819Y-110464285D01*
X170550057Y-109654761D02*
X170502438Y-109607142D01*
X170502438Y-109607142D02*
X170454819Y-109511904D01*
X170454819Y-109511904D02*
X170454819Y-109273809D01*
X170454819Y-109273809D02*
X170502438Y-109178571D01*
X170502438Y-109178571D02*
X170550057Y-109130952D01*
X170550057Y-109130952D02*
X170645295Y-109083333D01*
X170645295Y-109083333D02*
X170740533Y-109083333D01*
X170740533Y-109083333D02*
X170883390Y-109130952D01*
X170883390Y-109130952D02*
X171454819Y-109702380D01*
X171454819Y-109702380D02*
X171454819Y-109083333D01*
X173181009Y-111476190D02*
X173181009Y-111809523D01*
X173704819Y-111809523D02*
X172704819Y-111809523D01*
X172704819Y-111809523D02*
X172704819Y-111333333D01*
X172704819Y-111095237D02*
X172704819Y-110523809D01*
X173704819Y-110809523D02*
X172704819Y-110809523D01*
X173704819Y-110190475D02*
X172704819Y-110190475D01*
X172704819Y-110190475D02*
X172704819Y-109952380D01*
X172704819Y-109952380D02*
X172752438Y-109809523D01*
X172752438Y-109809523D02*
X172847676Y-109714285D01*
X172847676Y-109714285D02*
X172942914Y-109666666D01*
X172942914Y-109666666D02*
X173133390Y-109619047D01*
X173133390Y-109619047D02*
X173276247Y-109619047D01*
X173276247Y-109619047D02*
X173466723Y-109666666D01*
X173466723Y-109666666D02*
X173561961Y-109714285D01*
X173561961Y-109714285D02*
X173657200Y-109809523D01*
X173657200Y-109809523D02*
X173704819Y-109952380D01*
X173704819Y-109952380D02*
X173704819Y-110190475D01*
X173704819Y-109190475D02*
X173038152Y-109190475D01*
X172704819Y-109190475D02*
X172752438Y-109238094D01*
X172752438Y-109238094D02*
X172800057Y-109190475D01*
X172800057Y-109190475D02*
X172752438Y-109142856D01*
X172752438Y-109142856D02*
X172704819Y-109190475D01*
X172704819Y-109190475D02*
X172800057Y-109190475D01*
X140953628Y-98376190D02*
X141429819Y-98376190D01*
X140429819Y-98709523D02*
X140953628Y-98376190D01*
X140953628Y-98376190D02*
X140429819Y-98042857D01*
X141429819Y-97185714D02*
X141429819Y-97757142D01*
X141429819Y-97471428D02*
X140429819Y-97471428D01*
X140429819Y-97471428D02*
X140572676Y-97566666D01*
X140572676Y-97566666D02*
X140667914Y-97661904D01*
X140667914Y-97661904D02*
X140715533Y-97757142D01*
X146338095Y-88904819D02*
X146338095Y-89714342D01*
X146338095Y-89714342D02*
X146385714Y-89809580D01*
X146385714Y-89809580D02*
X146433333Y-89857200D01*
X146433333Y-89857200D02*
X146528571Y-89904819D01*
X146528571Y-89904819D02*
X146719047Y-89904819D01*
X146719047Y-89904819D02*
X146814285Y-89857200D01*
X146814285Y-89857200D02*
X146861904Y-89809580D01*
X146861904Y-89809580D02*
X146909523Y-89714342D01*
X146909523Y-89714342D02*
X146909523Y-88904819D01*
X147909523Y-89904819D02*
X147338095Y-89904819D01*
X147623809Y-89904819D02*
X147623809Y-88904819D01*
X147623809Y-88904819D02*
X147528571Y-89047676D01*
X147528571Y-89047676D02*
X147433333Y-89142914D01*
X147433333Y-89142914D02*
X147338095Y-89190533D01*
X145833333Y-101719104D02*
X146309523Y-101719104D01*
X145738095Y-102004819D02*
X146071428Y-101004819D01*
X146071428Y-101004819D02*
X146404761Y-102004819D01*
X146595238Y-101004819D02*
X147166666Y-101004819D01*
X146880952Y-102004819D02*
X146880952Y-101004819D01*
X147500000Y-102004819D02*
X147500000Y-101338152D01*
X147500000Y-101433390D02*
X147547619Y-101385771D01*
X147547619Y-101385771D02*
X147642857Y-101338152D01*
X147642857Y-101338152D02*
X147785714Y-101338152D01*
X147785714Y-101338152D02*
X147880952Y-101385771D01*
X147880952Y-101385771D02*
X147928571Y-101481009D01*
X147928571Y-101481009D02*
X147928571Y-102004819D01*
X147928571Y-101481009D02*
X147976190Y-101385771D01*
X147976190Y-101385771D02*
X148071428Y-101338152D01*
X148071428Y-101338152D02*
X148214285Y-101338152D01*
X148214285Y-101338152D02*
X148309524Y-101385771D01*
X148309524Y-101385771D02*
X148357143Y-101481009D01*
X148357143Y-101481009D02*
X148357143Y-102004819D01*
X149214285Y-101957200D02*
X149119047Y-102004819D01*
X149119047Y-102004819D02*
X148928571Y-102004819D01*
X148928571Y-102004819D02*
X148833333Y-101957200D01*
X148833333Y-101957200D02*
X148785714Y-101861961D01*
X148785714Y-101861961D02*
X148785714Y-101481009D01*
X148785714Y-101481009D02*
X148833333Y-101385771D01*
X148833333Y-101385771D02*
X148928571Y-101338152D01*
X148928571Y-101338152D02*
X149119047Y-101338152D01*
X149119047Y-101338152D02*
X149214285Y-101385771D01*
X149214285Y-101385771D02*
X149261904Y-101481009D01*
X149261904Y-101481009D02*
X149261904Y-101576247D01*
X149261904Y-101576247D02*
X148785714Y-101671485D01*
X150119047Y-101338152D02*
X150119047Y-102147676D01*
X150119047Y-102147676D02*
X150071428Y-102242914D01*
X150071428Y-102242914D02*
X150023809Y-102290533D01*
X150023809Y-102290533D02*
X149928571Y-102338152D01*
X149928571Y-102338152D02*
X149785714Y-102338152D01*
X149785714Y-102338152D02*
X149690476Y-102290533D01*
X150119047Y-101957200D02*
X150023809Y-102004819D01*
X150023809Y-102004819D02*
X149833333Y-102004819D01*
X149833333Y-102004819D02*
X149738095Y-101957200D01*
X149738095Y-101957200D02*
X149690476Y-101909580D01*
X149690476Y-101909580D02*
X149642857Y-101814342D01*
X149642857Y-101814342D02*
X149642857Y-101528628D01*
X149642857Y-101528628D02*
X149690476Y-101433390D01*
X149690476Y-101433390D02*
X149738095Y-101385771D01*
X149738095Y-101385771D02*
X149833333Y-101338152D01*
X149833333Y-101338152D02*
X150023809Y-101338152D01*
X150023809Y-101338152D02*
X150119047Y-101385771D01*
X151023809Y-102004819D02*
X151023809Y-101481009D01*
X151023809Y-101481009D02*
X150976190Y-101385771D01*
X150976190Y-101385771D02*
X150880952Y-101338152D01*
X150880952Y-101338152D02*
X150690476Y-101338152D01*
X150690476Y-101338152D02*
X150595238Y-101385771D01*
X151023809Y-101957200D02*
X150928571Y-102004819D01*
X150928571Y-102004819D02*
X150690476Y-102004819D01*
X150690476Y-102004819D02*
X150595238Y-101957200D01*
X150595238Y-101957200D02*
X150547619Y-101861961D01*
X150547619Y-101861961D02*
X150547619Y-101766723D01*
X150547619Y-101766723D02*
X150595238Y-101671485D01*
X150595238Y-101671485D02*
X150690476Y-101623866D01*
X150690476Y-101623866D02*
X150928571Y-101623866D01*
X150928571Y-101623866D02*
X151023809Y-101576247D01*
X151404762Y-101004819D02*
X152023809Y-101004819D01*
X152023809Y-101004819D02*
X151690476Y-101385771D01*
X151690476Y-101385771D02*
X151833333Y-101385771D01*
X151833333Y-101385771D02*
X151928571Y-101433390D01*
X151928571Y-101433390D02*
X151976190Y-101481009D01*
X151976190Y-101481009D02*
X152023809Y-101576247D01*
X152023809Y-101576247D02*
X152023809Y-101814342D01*
X152023809Y-101814342D02*
X151976190Y-101909580D01*
X151976190Y-101909580D02*
X151928571Y-101957200D01*
X151928571Y-101957200D02*
X151833333Y-102004819D01*
X151833333Y-102004819D02*
X151547619Y-102004819D01*
X151547619Y-102004819D02*
X151452381Y-101957200D01*
X151452381Y-101957200D02*
X151404762Y-101909580D01*
X152404762Y-101100057D02*
X152452381Y-101052438D01*
X152452381Y-101052438D02*
X152547619Y-101004819D01*
X152547619Y-101004819D02*
X152785714Y-101004819D01*
X152785714Y-101004819D02*
X152880952Y-101052438D01*
X152880952Y-101052438D02*
X152928571Y-101100057D01*
X152928571Y-101100057D02*
X152976190Y-101195295D01*
X152976190Y-101195295D02*
X152976190Y-101290533D01*
X152976190Y-101290533D02*
X152928571Y-101433390D01*
X152928571Y-101433390D02*
X152357143Y-102004819D01*
X152357143Y-102004819D02*
X152976190Y-102004819D01*
X153547619Y-101433390D02*
X153452381Y-101385771D01*
X153452381Y-101385771D02*
X153404762Y-101338152D01*
X153404762Y-101338152D02*
X153357143Y-101242914D01*
X153357143Y-101242914D02*
X153357143Y-101195295D01*
X153357143Y-101195295D02*
X153404762Y-101100057D01*
X153404762Y-101100057D02*
X153452381Y-101052438D01*
X153452381Y-101052438D02*
X153547619Y-101004819D01*
X153547619Y-101004819D02*
X153738095Y-101004819D01*
X153738095Y-101004819D02*
X153833333Y-101052438D01*
X153833333Y-101052438D02*
X153880952Y-101100057D01*
X153880952Y-101100057D02*
X153928571Y-101195295D01*
X153928571Y-101195295D02*
X153928571Y-101242914D01*
X153928571Y-101242914D02*
X153880952Y-101338152D01*
X153880952Y-101338152D02*
X153833333Y-101385771D01*
X153833333Y-101385771D02*
X153738095Y-101433390D01*
X153738095Y-101433390D02*
X153547619Y-101433390D01*
X153547619Y-101433390D02*
X153452381Y-101481009D01*
X153452381Y-101481009D02*
X153404762Y-101528628D01*
X153404762Y-101528628D02*
X153357143Y-101623866D01*
X153357143Y-101623866D02*
X153357143Y-101814342D01*
X153357143Y-101814342D02*
X153404762Y-101909580D01*
X153404762Y-101909580D02*
X153452381Y-101957200D01*
X153452381Y-101957200D02*
X153547619Y-102004819D01*
X153547619Y-102004819D02*
X153738095Y-102004819D01*
X153738095Y-102004819D02*
X153833333Y-101957200D01*
X153833333Y-101957200D02*
X153880952Y-101909580D01*
X153880952Y-101909580D02*
X153928571Y-101814342D01*
X153928571Y-101814342D02*
X153928571Y-101623866D01*
X153928571Y-101623866D02*
X153880952Y-101528628D01*
X153880952Y-101528628D02*
X153833333Y-101481009D01*
X153833333Y-101481009D02*
X153738095Y-101433390D01*
X154357143Y-102004819D02*
X154357143Y-101004819D01*
X154357143Y-101004819D02*
X154738095Y-101004819D01*
X154738095Y-101004819D02*
X154833333Y-101052438D01*
X154833333Y-101052438D02*
X154880952Y-101100057D01*
X154880952Y-101100057D02*
X154928571Y-101195295D01*
X154928571Y-101195295D02*
X154928571Y-101338152D01*
X154928571Y-101338152D02*
X154880952Y-101433390D01*
X154880952Y-101433390D02*
X154833333Y-101481009D01*
X154833333Y-101481009D02*
X154738095Y-101528628D01*
X154738095Y-101528628D02*
X154357143Y-101528628D01*
X155357143Y-101623866D02*
X156119048Y-101623866D01*
X156595238Y-102004819D02*
X156595238Y-101004819D01*
X156595238Y-101004819D02*
X156976190Y-101004819D01*
X156976190Y-101004819D02*
X157071428Y-101052438D01*
X157071428Y-101052438D02*
X157119047Y-101100057D01*
X157119047Y-101100057D02*
X157166666Y-101195295D01*
X157166666Y-101195295D02*
X157166666Y-101338152D01*
X157166666Y-101338152D02*
X157119047Y-101433390D01*
X157119047Y-101433390D02*
X157071428Y-101481009D01*
X157071428Y-101481009D02*
X156976190Y-101528628D01*
X156976190Y-101528628D02*
X156595238Y-101528628D01*
X132134762Y-110907200D02*
X132277619Y-110954819D01*
X132277619Y-110954819D02*
X132515714Y-110954819D01*
X132515714Y-110954819D02*
X132610952Y-110907200D01*
X132610952Y-110907200D02*
X132658571Y-110859580D01*
X132658571Y-110859580D02*
X132706190Y-110764342D01*
X132706190Y-110764342D02*
X132706190Y-110669104D01*
X132706190Y-110669104D02*
X132658571Y-110573866D01*
X132658571Y-110573866D02*
X132610952Y-110526247D01*
X132610952Y-110526247D02*
X132515714Y-110478628D01*
X132515714Y-110478628D02*
X132325238Y-110431009D01*
X132325238Y-110431009D02*
X132230000Y-110383390D01*
X132230000Y-110383390D02*
X132182381Y-110335771D01*
X132182381Y-110335771D02*
X132134762Y-110240533D01*
X132134762Y-110240533D02*
X132134762Y-110145295D01*
X132134762Y-110145295D02*
X132182381Y-110050057D01*
X132182381Y-110050057D02*
X132230000Y-110002438D01*
X132230000Y-110002438D02*
X132325238Y-109954819D01*
X132325238Y-109954819D02*
X132563333Y-109954819D01*
X132563333Y-109954819D02*
X132706190Y-110002438D01*
X133658571Y-110954819D02*
X133087143Y-110954819D01*
X133372857Y-110954819D02*
X133372857Y-109954819D01*
X133372857Y-109954819D02*
X133277619Y-110097676D01*
X133277619Y-110097676D02*
X133182381Y-110192914D01*
X133182381Y-110192914D02*
X133087143Y-110240533D01*
X134801429Y-110907200D02*
X134944286Y-110954819D01*
X134944286Y-110954819D02*
X135182381Y-110954819D01*
X135182381Y-110954819D02*
X135277619Y-110907200D01*
X135277619Y-110907200D02*
X135325238Y-110859580D01*
X135325238Y-110859580D02*
X135372857Y-110764342D01*
X135372857Y-110764342D02*
X135372857Y-110669104D01*
X135372857Y-110669104D02*
X135325238Y-110573866D01*
X135325238Y-110573866D02*
X135277619Y-110526247D01*
X135277619Y-110526247D02*
X135182381Y-110478628D01*
X135182381Y-110478628D02*
X134991905Y-110431009D01*
X134991905Y-110431009D02*
X134896667Y-110383390D01*
X134896667Y-110383390D02*
X134849048Y-110335771D01*
X134849048Y-110335771D02*
X134801429Y-110240533D01*
X134801429Y-110240533D02*
X134801429Y-110145295D01*
X134801429Y-110145295D02*
X134849048Y-110050057D01*
X134849048Y-110050057D02*
X134896667Y-110002438D01*
X134896667Y-110002438D02*
X134991905Y-109954819D01*
X134991905Y-109954819D02*
X135230000Y-109954819D01*
X135230000Y-109954819D02*
X135372857Y-110002438D01*
X135753810Y-110050057D02*
X135801429Y-110002438D01*
X135801429Y-110002438D02*
X135896667Y-109954819D01*
X135896667Y-109954819D02*
X136134762Y-109954819D01*
X136134762Y-109954819D02*
X136230000Y-110002438D01*
X136230000Y-110002438D02*
X136277619Y-110050057D01*
X136277619Y-110050057D02*
X136325238Y-110145295D01*
X136325238Y-110145295D02*
X136325238Y-110240533D01*
X136325238Y-110240533D02*
X136277619Y-110383390D01*
X136277619Y-110383390D02*
X135706191Y-110954819D01*
X135706191Y-110954819D02*
X136325238Y-110954819D01*
X136544819Y-92406666D02*
X136068628Y-92739999D01*
X136544819Y-92978094D02*
X135544819Y-92978094D01*
X135544819Y-92978094D02*
X135544819Y-92597142D01*
X135544819Y-92597142D02*
X135592438Y-92501904D01*
X135592438Y-92501904D02*
X135640057Y-92454285D01*
X135640057Y-92454285D02*
X135735295Y-92406666D01*
X135735295Y-92406666D02*
X135878152Y-92406666D01*
X135878152Y-92406666D02*
X135973390Y-92454285D01*
X135973390Y-92454285D02*
X136021009Y-92501904D01*
X136021009Y-92501904D02*
X136068628Y-92597142D01*
X136068628Y-92597142D02*
X136068628Y-92978094D01*
X135878152Y-91549523D02*
X136544819Y-91549523D01*
X135497200Y-91787618D02*
X136211485Y-92025713D01*
X136211485Y-92025713D02*
X136211485Y-91406666D01*
X146303333Y-86244819D02*
X145970000Y-85768628D01*
X145731905Y-86244819D02*
X145731905Y-85244819D01*
X145731905Y-85244819D02*
X146112857Y-85244819D01*
X146112857Y-85244819D02*
X146208095Y-85292438D01*
X146208095Y-85292438D02*
X146255714Y-85340057D01*
X146255714Y-85340057D02*
X146303333Y-85435295D01*
X146303333Y-85435295D02*
X146303333Y-85578152D01*
X146303333Y-85578152D02*
X146255714Y-85673390D01*
X146255714Y-85673390D02*
X146208095Y-85721009D01*
X146208095Y-85721009D02*
X146112857Y-85768628D01*
X146112857Y-85768628D02*
X145731905Y-85768628D01*
X146636667Y-85244819D02*
X147255714Y-85244819D01*
X147255714Y-85244819D02*
X146922381Y-85625771D01*
X146922381Y-85625771D02*
X147065238Y-85625771D01*
X147065238Y-85625771D02*
X147160476Y-85673390D01*
X147160476Y-85673390D02*
X147208095Y-85721009D01*
X147208095Y-85721009D02*
X147255714Y-85816247D01*
X147255714Y-85816247D02*
X147255714Y-86054342D01*
X147255714Y-86054342D02*
X147208095Y-86149580D01*
X147208095Y-86149580D02*
X147160476Y-86197200D01*
X147160476Y-86197200D02*
X147065238Y-86244819D01*
X147065238Y-86244819D02*
X146779524Y-86244819D01*
X146779524Y-86244819D02*
X146684286Y-86197200D01*
X146684286Y-86197200D02*
X146636667Y-86149580D01*
X137433333Y-104854819D02*
X137100000Y-104378628D01*
X136861905Y-104854819D02*
X136861905Y-103854819D01*
X136861905Y-103854819D02*
X137242857Y-103854819D01*
X137242857Y-103854819D02*
X137338095Y-103902438D01*
X137338095Y-103902438D02*
X137385714Y-103950057D01*
X137385714Y-103950057D02*
X137433333Y-104045295D01*
X137433333Y-104045295D02*
X137433333Y-104188152D01*
X137433333Y-104188152D02*
X137385714Y-104283390D01*
X137385714Y-104283390D02*
X137338095Y-104331009D01*
X137338095Y-104331009D02*
X137242857Y-104378628D01*
X137242857Y-104378628D02*
X136861905Y-104378628D01*
X138385714Y-104854819D02*
X137814286Y-104854819D01*
X138100000Y-104854819D02*
X138100000Y-103854819D01*
X138100000Y-103854819D02*
X138004762Y-103997676D01*
X138004762Y-103997676D02*
X137909524Y-104092914D01*
X137909524Y-104092914D02*
X137814286Y-104140533D01*
D13*
%TO.C,U2*%
X165950000Y-99900000D02*
X165950000Y-106320000D01*
X159050000Y-99900000D02*
X159050000Y-106320000D01*
X165950000Y-106320000D02*
X165680000Y-106320000D01*
X165680000Y-106320000D02*
X165680000Y-107420000D01*
X159320000Y-106320000D02*
X159320000Y-109150000D01*
X159050000Y-106320000D02*
X159320000Y-106320000D01*
%TO.C,J6*%
X158129000Y-118370000D02*
X158129000Y-111630000D01*
X168990000Y-111630000D02*
X158129000Y-111630000D01*
X168990000Y-112150000D02*
X158129000Y-112150000D01*
X168990000Y-117250000D02*
X158129000Y-117250000D01*
X168990000Y-118370000D02*
X158129000Y-118370000D01*
X168990000Y-118370000D02*
X168990000Y-111630000D01*
X169230000Y-111390000D02*
X168830000Y-111390000D01*
X169230000Y-112030000D02*
X169230000Y-111390000D01*
%TO.C,J4*%
X143752500Y-111630000D02*
X143752500Y-118370000D01*
X137972500Y-118370000D02*
X143752500Y-118370000D01*
X137972500Y-117850000D02*
X143752500Y-117850000D01*
X137972500Y-112750000D02*
X143752500Y-112750000D01*
X137972500Y-111630000D02*
X143752500Y-111630000D01*
X137972500Y-111630000D02*
X137972500Y-118370000D01*
X137732500Y-118610000D02*
X138132500Y-118610000D01*
X137732500Y-117970000D02*
X137732500Y-118610000D01*
%TO.C,R2*%
X143327064Y-105265000D02*
X142872936Y-105265000D01*
X143327064Y-106735000D02*
X142872936Y-106735000D01*
D14*
%TO.C,C1*%
X151052000Y-107100000D02*
G75*
G03*
X151052000Y-107100000I-76200J0D01*
G01*
X156081200Y-105474400D02*
X152118800Y-105474400D01*
X152118800Y-108725600D02*
X156081200Y-108725600D01*
D13*
%TO.C,D1*%
X137005000Y-88900000D02*
X138475000Y-88900000D01*
X138475000Y-88900000D02*
X138475000Y-86440000D01*
X137005000Y-86440000D02*
X137005000Y-88900000D01*
%TO.C,J7*%
X151140000Y-117970000D02*
X151140000Y-118610000D01*
X151140000Y-118610000D02*
X151540000Y-118610000D01*
X151380000Y-111630000D02*
X151380000Y-118370000D01*
X151380000Y-111630000D02*
X157160000Y-111630000D01*
X151380000Y-112750000D02*
X157160000Y-112750000D01*
X151380000Y-117850000D02*
X157160000Y-117850000D01*
X151380000Y-118370000D02*
X157160000Y-118370000D01*
X157160000Y-111630000D02*
X157160000Y-118370000D01*
%TO.C,J5*%
X144390000Y-117970000D02*
X144390000Y-118610000D01*
X144390000Y-118610000D02*
X144790000Y-118610000D01*
X144630000Y-111630000D02*
X144630000Y-118370000D01*
X144630000Y-111630000D02*
X150410000Y-111630000D01*
X144630000Y-112750000D02*
X150410000Y-112750000D01*
X144630000Y-117850000D02*
X150410000Y-117850000D01*
X144630000Y-118370000D02*
X150410000Y-118370000D01*
X150410000Y-111630000D02*
X150410000Y-118370000D01*
%TO.C,J1*%
X132970000Y-108770000D02*
X133610000Y-108770000D01*
X133610000Y-108770000D02*
X133610000Y-108370000D01*
X126630000Y-108530000D02*
X133370000Y-108530000D01*
X126630000Y-108530000D02*
X126630000Y-92590000D01*
X127750000Y-108530000D02*
X127750000Y-92590000D01*
X132850000Y-108530000D02*
X132850000Y-92590000D01*
X133370000Y-108530000D02*
X133370000Y-92590000D01*
X126630000Y-92590000D02*
X133370000Y-92590000D01*
%TO.C,C2*%
X144011252Y-92640000D02*
X142588748Y-92640000D01*
X144011252Y-94460000D02*
X142588748Y-94460000D01*
%TO.C,Reset1*%
X159520000Y-84770000D02*
X165980000Y-84770000D01*
X159520000Y-84800000D02*
X159520000Y-84770000D01*
X159520000Y-86700000D02*
X159520000Y-89300000D01*
X159520000Y-91230000D02*
X159520000Y-91200000D01*
X159520000Y-91230000D02*
X165980000Y-91230000D01*
X165980000Y-84770000D02*
X165980000Y-84800000D01*
X165980000Y-86700000D02*
X165980000Y-89300000D01*
X165980000Y-91230000D02*
X165980000Y-91200000D01*
%TO.C,J2*%
X173970000Y-108810000D02*
X174610000Y-108810000D01*
X174610000Y-108810000D02*
X174610000Y-108410000D01*
X167630000Y-108570000D02*
X174370000Y-108570000D01*
X167630000Y-108570000D02*
X167630000Y-92630000D01*
X168750000Y-108570000D02*
X168750000Y-92630000D01*
X173850000Y-108570000D02*
X173850000Y-92630000D01*
X174370000Y-108570000D02*
X174370000Y-92630000D01*
X167630000Y-92630000D02*
X174370000Y-92630000D01*
%TO.C,Y1*%
X142905000Y-96790000D02*
X143545000Y-96790000D01*
X144785000Y-97520000D02*
X144785000Y-96830000D01*
X141865000Y-97730000D02*
X141865000Y-98070000D01*
X144585000Y-97740000D02*
X144585000Y-98070000D01*
X142905000Y-99010000D02*
X143545000Y-99010000D01*
X144585000Y-97740000D02*
G75*
G03*
X144784999Y-97520000I-120002J310001D01*
G01*
D12*
%TO.C,U1*%
X147875000Y-91875000D02*
X147875000Y-92100000D01*
X147875000Y-91875000D02*
X148200000Y-91875000D01*
X147875000Y-92100000D02*
X146450000Y-92100000D01*
X147875000Y-99125000D02*
X147875000Y-98800000D01*
X147875000Y-99125000D02*
X148200000Y-99125000D01*
X155125000Y-91875000D02*
X154800000Y-91875000D01*
X155125000Y-91875000D02*
X155125000Y-92200000D01*
X155125000Y-99125000D02*
X154800000Y-99125000D01*
X155125000Y-99125000D02*
X155125000Y-98800000D01*
D13*
%TO.C,J3*%
X131100000Y-117970000D02*
X131100000Y-118610000D01*
X131100000Y-118610000D02*
X131500000Y-118610000D01*
X131340000Y-111630000D02*
X131340000Y-118370000D01*
X131340000Y-111630000D02*
X137120000Y-111630000D01*
X131340000Y-112750000D02*
X137120000Y-112750000D01*
X131340000Y-117850000D02*
X137120000Y-117850000D01*
X131340000Y-118370000D02*
X137120000Y-118370000D01*
X137120000Y-111630000D02*
X137120000Y-118370000D01*
%TO.C,R4*%
X137005000Y-92467064D02*
X137005000Y-92012936D01*
X138475000Y-92467064D02*
X138475000Y-92012936D01*
%TO.C,R3*%
X146202936Y-88105000D02*
X146657064Y-88105000D01*
X146202936Y-86635000D02*
X146657064Y-86635000D01*
%TO.C,R1*%
X137827064Y-106735000D02*
X137372936Y-106735000D01*
X137827064Y-105265000D02*
X137372936Y-105265000D01*
%TD*%
M02*
