M48
; DRILL file {KiCad 7.0.6} date Sun Mar 10 00:39:46 2024
; FORMAT={-:-/ absolute / inch / decimal}
; #@! TF.CreationDate,2024-03-10T00:39:46+00:00
; #@! TF.GenerationSoftware,Kicad,Pcbnew,7.0.6
; #@! TF.FileFunction,Plated,1,2,PTH
FMAT,2
INCH
; #@! TA.AperFunction,Plated,PTH,ViaDrill
T1C0.0157
; #@! TA.AperFunction,Plated,PTH,ComponentDrill
T2C0.0433
%
G90
G05
T1
X5.1988Y-3.9098
X5.3118Y-4.1697
X5.3563Y-3.7539
X5.4788Y-4.2508
X5.5378Y-4.248
X5.5937Y-3.7654
X5.6012Y-3.9413
X5.7197Y-3.9638
X5.8535Y-3.5374
X5.8535Y-3.6476
X5.9138Y-3.8173
X6.0646Y-3.7673
X6.0744Y-3.6602
X6.0762Y-3.6995
X6.126Y-4.437
X6.1803Y-4.2169
X6.187Y-3.6602
X6.2004Y-4.3239
X6.2155Y-3.6996
X6.2602Y-4.322
X6.3217Y-3.5575
X6.3516Y-4.4665
X6.3594Y-4.2543
X6.4846Y-3.5535
X6.6437Y-4.2118
T2
X5.1181Y-3.7091
X5.1181Y-3.8091
X5.1181Y-3.9091
X5.1181Y-4.0091
X5.1181Y-4.1091
X5.1181Y-4.2091
X5.2346Y-4.5276
X5.3346Y-4.5276
X5.4958Y-4.5276
X5.5958Y-4.5276
X5.7579Y-4.5276
X5.8579Y-4.5276
X6.0236Y-4.5276
X6.1236Y-4.5276
X6.2894Y-4.5276
X6.3894Y-4.5276
X6.4894Y-4.5276
X6.5894Y-4.5276
X6.7323Y-3.7106
X6.7323Y-3.8106
X6.7323Y-3.9106
X6.7323Y-4.0106
X6.7323Y-4.1106
X6.7323Y-4.2106
T0
M30
